<svg xmlns="http://www.w3.org/2000/svg" viewBox="0 0 350 345.77"><title>Logo social</title><g id="Layer_2" data-name="Layer 2"><g id="Layer_1-2" data-name="Layer 1"><path d="M77.23,101.62H51V61.27H26.19v40.35H0V0H26.19V38.84H51V0h26.2Z"/><path d="M168.6,101.62H142.41V76.32h-23v25.3H93.18V11.89C93.18,4.82,98,0,105.07,0h51.64c7.07,0,11.89,4.82,11.89,11.89ZM142.41,54.35V23.78c0-1.8-1.51-3-3.62-3H122.54a3.06,3.06,0,0,0-3.17,3V54.35Z"/><path d="M248.39,0a11.44,11.44,0,0,1,11.44,11.44V58A11.64,11.64,0,0,1,248.39,69.4h-.75l12.49,32.22H234.54L221.89,69.4H210.75v32.22H184.56V0Zm-14.6,23.33a1.62,1.62,0,0,0-1.36-1.5H210.75v27.1h21.68a1.61,1.61,0,0,0,1.36-1.36Z"/><path d="M329.38,0A20.75,20.75,0,0,1,350,20.62V80.84a20.79,20.79,0,0,1-20.62,20.78H274.73V0ZM324,29.21a7,7,0,0,0-7.38-7.38H300.92V79.64h15.66A7,7,0,0,0,324,72.26Z"/><path d="M111,120,92.67,217.47H70.58l-15-54.27L40.13,217.47H18.48L0,120H24.54l8.52,61.2L46.19,120H66.83l12.42,59.47L88.49,120Z"/><path d="M188.19,217.47H163.07V193.22H141v24.25H115.87v-86c0-6.78,4.62-11.4,11.41-11.4h49.51c6.78,0,11.4,4.62,11.4,11.4Zm-25.12-45.32V142.84c0-1.73-1.44-2.88-3.46-2.88H144a2.93,2.93,0,0,0-3,2.88v29.31Z"/><path d="M262.89,120a11,11,0,0,1,11,11v44.6a11.15,11.15,0,0,1-11,11h-.72l12,30.89H249.61l-12.13-30.89H226.8v30.89H201.69V120Zm-14,22.37a1.54,1.54,0,0,0-1.3-1.44H226.8v26h20.79a1.53,1.53,0,0,0,1.3-1.3Z"/><path d="M286.34,120H350V141H311.31v17H344.8v20.79H311.31V196.4H350v21.07H286.34Z"/><rect y="235.89" width="107.39" height="107.39" rx="2" ry="2"/><rect x="242.61" y="235.89" width="107.39" height="107.39" rx="2" ry="2"/><path d="M175,251.82a37.76,37.76,0,1,1-26.7,11.06A37.51,37.51,0,0,1,175,251.82m0-18.42a56.19,56.19,0,1,0,56.18,56.19A56.19,56.19,0,0,0,175,233.4Z"/></g></g></svg>