<svg xmlns="http://www.w3.org/2000/svg" viewBox="0 0 423.46 49.08"><title>Logo Wide</title><g id="Layer_2" data-name="Layer 2"><g id="Layer_1-2" data-name="Layer 1"><path d="M34.26,49.08H22.64V31.19h-11V49.08H0V4H11.62V21.24h11V4H34.26Z"/><path d="M74.79,49.08H63.17V37.86H53V49.08H41.33V9.28A5,5,0,0,1,46.61,4h22.9a5,5,0,0,1,5.28,5.27Zm-11.62-21V14.56a1.42,1.42,0,0,0-1.6-1.34H54.36A1.36,1.36,0,0,0,53,14.56V28.11Z"/><path d="M110.18,4a5.07,5.07,0,0,1,5.08,5.07V29.72a5.16,5.16,0,0,1-5.08,5.07h-.33l5.54,14.29H104L98.43,34.79H93.49V49.08H81.87V4ZM103.7,14.36a.71.71,0,0,0-.6-.67H93.49v12h9.61a.7.7,0,0,0,.6-.6Z"/><path d="M146.11,4a9.2,9.2,0,0,1,9.14,9.15V39.87a9.21,9.21,0,0,1-9.14,9.21H121.87V4ZM143.7,17a3.12,3.12,0,0,0-3.27-3.27h-6.94V39.33h6.94a3.11,3.11,0,0,0,3.27-3.27Z"/><path d="M209.94,4l-8.48,45.07H191.24l-7-25.11-7.14,25.11h-10L158.59,4h11.35l3.94,28.31L180,4h9.55l5.75,27.51L199.52,4Z"/><path d="M245.65,49.08H234V37.86H223.81V49.08H212.19V9.28A5,5,0,0,1,217.47,4h22.9a5,5,0,0,1,5.28,5.27ZM234,28.11V14.56a1.43,1.43,0,0,0-1.61-1.34h-7.21a1.35,1.35,0,0,0-1.4,1.34V28.11Z"/><path d="M280.2,4a5.07,5.07,0,0,1,5.08,5.07V29.72a5.16,5.16,0,0,1-5.08,5.07h-.33l5.54,14.29H274.06l-5.61-14.29h-4.94V49.08H251.89V4Zm-6.47,10.35a.72.72,0,0,0-.61-.67h-9.61v12h9.61a.71.71,0,0,0,.61-.6Z"/><path d="M291.05,4H320.5v9.68H302.61v7.88H318.1v9.62H302.61v8.14H320.5v9.75H291.05Z"/><rect x="375.98" width="8" height="26.51"/><rect x="336.5" y="3.97" width="11.62" height="45.08"/><rect x="411.84" y="3.97" width="11.62" height="45.08"/><path d="M398.57,4H389v9.75h2.51a.73.73,0,0,1,.73.73V38.73a.67.67,0,0,1-.73.6H368.34a.64.64,0,0,1-.6-.6V14.49a.72.72,0,0,1,.6-.73H371V4H361.4a5,5,0,0,0-5.28,5.27V43.81a5,5,0,0,0,5.28,5.27h37.17a5,5,0,0,0,5.27-5.27V9.28A5,5,0,0,0,398.57,4Z"/></g></g></svg>