<svg xmlns="http://www.w3.org/2000/svg" viewBox="0 0 480 47.29"><title>Logo</title><g id="Layer_2" data-name="Layer 2"><g id="Layer_1-2" data-name="Layer 1"><path d="M34.26,46.18H22.64V28.28h-11v17.9H0V1.11H11.62V18.33h11V1.11H34.26Z"/><path d="M74.79,46.18H63.17V35H53V46.18H41.33V6.38a5,5,0,0,1,5.28-5.27h22.9a5,5,0,0,1,5.28,5.27Zm-11.62-21V11.66a1.42,1.42,0,0,0-1.6-1.34H54.36A1.36,1.36,0,0,0,53,11.66V25.21Z"/><path d="M110.18,1.11a5.07,5.07,0,0,1,5.08,5.07V26.81a5.17,5.17,0,0,1-5.08,5.08h-.33l5.54,14.29H104L98.43,31.89H93.49V46.18H81.87V1.11ZM103.7,11.46a.71.71,0,0,0-.6-.67H93.49v12h9.61a.71.71,0,0,0,.6-.6Z"/><path d="M146.11,1.11a9.2,9.2,0,0,1,9.14,9.14V37a9.21,9.21,0,0,1-9.14,9.21H121.87V1.11Zm-2.41,13a3.11,3.11,0,0,0-3.27-3.27h-6.94V36.43h6.94a3.11,3.11,0,0,0,3.27-3.27Z"/><path d="M209.94,1.11l-8.48,45.07H191.24l-7-25.11-7.14,25.11h-10L158.59,1.11h11.35l3.94,28.31L180,1.11h9.55l5.75,27.51,4.27-27.51Z"/><path d="M245.65,46.18H234V35H223.81V46.18H212.19V6.38a5,5,0,0,1,5.28-5.27h22.9a5,5,0,0,1,5.28,5.27ZM234,25.21V11.66c0-.81-.67-1.34-1.61-1.34h-7.21a1.35,1.35,0,0,0-1.4,1.34V25.21Z"/><path d="M280.2,1.11a5.07,5.07,0,0,1,5.08,5.07V26.81a5.17,5.17,0,0,1-5.08,5.08h-.33l5.54,14.29H274.06l-5.61-14.29h-4.94V46.18H251.89V1.11Zm-6.47,10.35a.72.72,0,0,0-.61-.67h-9.61v12h9.61a.72.72,0,0,0,.61-.6Z"/><path d="M291.05,1.11H320.5v9.68H302.61v7.88H318.1v9.61H302.61v8.15H320.5v9.75H291.05Z"/><rect x="332.76" y="1.11" width="45.08" height="45.08" rx="2" ry="2"/><rect x="434.92" y="1.11" width="45.08" height="45.08" rx="2" ry="2"/><path d="M406.38,7.75a15.89,15.89,0,1,1-15.89,15.89A15.91,15.91,0,0,1,406.38,7.75m0-7.75A23.65,23.65,0,1,0,430,23.64,23.64,23.64,0,0,0,406.38,0Z"/></g></g></svg>