<?xml version="1.0" standalone="no"?>
 <!DOCTYPE svg PUBLIC "-//W3C//DTD SVG 1.1//EN" 
 "http://www.w3.org/Graphics/SVG/1.1/DTD/svg11.dtd"> 
<svg xmlns="http://www.w3.org/2000/svg" version="1.1" 
    width="29.7002cm" height="21.0007cm" viewBox="0 0 116930 82680 ">
<title>SVG Picture created as led_schaltung.sch.svg date 2018/02/24 20:15:45 </title>
  <desc>Picture generated by Eeschema-SVG </desc>
<g style="fill:#000000; fill-opacity:1;stroke:#000000; stroke-opacity:1;
stroke-linecap:round; stroke-linejoin:round; "
 transform="translate(0 0) scale(1 1)">
</g>
<g style="fill:#000000; fill-opacity:0.0; 
stroke:#000000; stroke-width:0; stroke-opacity:1; 
stroke-linecap:round; stroke-linejoin:round;">
</g>
<g style="fill:#000000; fill-opacity:0.0; 
stroke:#000000; stroke-width:50; stroke-opacity:1; 
stroke-linecap:round; stroke-linejoin:round;">
<path d="M7730 13140
L7730 12950
" />
<path d="M7730 12860
L7710 12870
L7730 12880
L7740 12870
L7730 12860
L7730 12880
" />
<path d="M7860 12950
L7860 13140
" />
<path d="M7860 12980
L7870 12960
L7900 12950
L7940 12950
L7960 12960
L7980 12990
L7980 13140
" />
<path d="M8070 12950
L8170 12950
" />
<path d="M8110 12860
L8110 13100
L8120 13120
L8150 13140
L8170 13140
" />
<path d="M8370 13120
L8350 13140
L8290 13140
L8270 13120
L8250 13100
L8250 12990
L8270 12960
L8290 12950
L8350 12950
L8370 12960
L8390 12990
L8390 13020
L8250 13040
" />
<path d="M8510 13140
L8510 12950
" />
<path d="M8510 13000
L8520 12980
L8530 12960
L8560 12950
L8590 12950
" />
<path d="M8680 12950
L8680 13140
" />
<path d="M8680 12980
L8690 12960
L8720 12950
L8760 12950
L8780 12960
L8800 12990
L8800 13140
" />
<path d="M9050 13140
L9050 12990
L9030 12960
L9010 12950
L8950 12950
L8930 12960
" />
<path d="M9050 13120
L9020 13140
L8950 13140
L8930 13120
L8910 13100
L8910 13070
L8930 13040
L8950 13030
L9020 13030
L9050 13020
" />
<path d="M9220 13140
L9190 13120
L9180 13100
L9180 12860
" />
<path d="M9680 13140
L9520 13140
" />
<path d="M9600 13140
L9600 12860
L9580 12900
L9550 12920
L9520 12940
" />
<path d="M9810 13110
L9820 13120
L9810 13140
L9790 13120
L9810 13110
L9810 13140
" />
<path d="M9980 12980
L9950 12960
L9940 12950
L9920 12920
L9920 12910
L9940 12880
L9950 12870
L9980 12860
L10030 12860
L10060 12870
L10070 12880
L10080 12910
L10080 12920
L10070 12950
L10060 12960
L10030 12980
L9980 12980
L9950 12990
L9940 13000
L9920 13030
L9920 13080
L9940 13110
L9950 13120
L9980 13140
L10030 13140
L10060 13120
L10070 13110
L10080 13080
L10080 13030
L10070 13000
L10060 12990
L10030 12980
" />
<path d="M10210 13140
L10210 12860
" />
<path d="M10230 13030
L10310 13140
" />
<path d="M10310 12950
L10210 13060
" />
<path d="M10650 12950
L10650 13230
" />
<path d="M10650 12960
L10670 12950
L10730 12950
L10750 12960
L10770 12980
L10780 13000
L10780 13080
L10770 13110
L10750 13120
L10730 13140
L10670 13140
L10650 13120
" />
<path d="M11020 12950
L11020 13140
" />
<path d="M10900 12950
L10900 13100
L10910 13120
L10940 13140
L10980 13140
L11000 13120
L11020 13110
" />
<path d="M11190 13140
L11160 13120
L11150 13100
L11150 12860
" />
<path d="M11340 13140
L11310 13120
L11300 13100
L11300 12860
" />
<path d="M11570 12950
L11570 13140
" />
<path d="M11450 12950
L11450 13100
L11460 13120
L11490 13140
L11530 13140
L11550 13120
L11570 13110
" />
<path d="M11700 12950
L11700 13230
" />
<path d="M11700 12960
L11720 12950
L11780 12950
L11800 12960
L11820 12980
L11830 13000
L11830 13080
L11820 13110
L11800 13120
L11780 13140
L11720 13140
L11700 13120
" />
<path d="M11930 13120
L11960 13140
L12010 13140
L12040 13120
L12050 13100
L12050 13080
L12040 13060
L12010 13040
L11970 13040
L11950 13030
L11930 13000
L11930 12990
L11950 12960
L11970 12950
L12010 12950
L12040 12960
" />
<path d="M12350 12950
L12450 12950
" />
<path d="M12390 12860
L12390 13100
L12400 13120
L12430 13140
L12450 13140
" />
<path d="M12590 13140
L12560 13120
L12550 13110
L12530 13080
L12530 13000
L12550 12980
L12560 12960
L12590 12950
L12630 12950
L12650 12960
L12670 12980
L12680 13000
L12680 13080
L12670 13110
L12650 13120
L12630 13140
L12590 13140
" />
<path d="M12980 12860
L13150 12860
L13060 12960
L13100 12960
L13130 12980
L13140 12990
L13150 13020
L13150 13080
L13140 13110
L13130 13120
L13100 13140
L13020 13140
L12990 13120
L12980 13110
" />
<path d="M13280 13110
L13290 13120
L13280 13140
L13260 13120
L13280 13110
L13280 13140
" />
<path d="M13380 12860
L13550 12860
L13460 12960
L13500 12960
L13530 12980
L13540 12990
L13550 13020
L13550 13080
L13540 13110
L13530 13120
L13500 13140
L13420 13140
L13390 13120
L13380 13110
" />
<path d="M13640 12860
L13730 13140
L13820 12860
" />
</g>
<g style="fill:#000000; fill-opacity:0.0; 
stroke:#000000; stroke-width:60; stroke-opacity:1; 
stroke-linecap:round; stroke-linejoin:round;">
<rect x="7500" y="9000" width="10000" height="20000" rx="0" />
<path d="M11500 9000
L11500 7500
" />
<path d="M11230 10570
L11230 10260
L11420 10430
L11420 10350
L11440 10310
L11460 10280
L11510 10260
L11630 10260
L11680 10280
L11700 10310
L11730 10350
L11730 10500
L11700 10540
L11680 10570
" />
<path d="M11680 10040
L11700 10020
L11730 10040
L11700 10060
L11680 10040
L11730 10040
" />
<path d="M11230 9850
L11230 9540
L11420 9710
L11420 9630
L11440 9590
L11460 9560
L11510 9540
L11630 9540
L11680 9560
L11700 9590
L11730 9630
L11730 9780
L11700 9820
L11680 9850
" />
<path d="M11230 9390
L11730 9230
L11230 9060
" />
<path d="M11380 8110
L11380 8390
" />
<path d="M11380 8250
L10880 8250
L10950 8300
L11000 8350
L11020 8390
" />
<path d="M14500 9000
L14500 7500
" />
<path d="M14230 9560
L14230 9800
L14460 9820
L14440 9800
L14420 9750
L14420 9630
L14440 9590
L14460 9560
L14510 9540
L14630 9540
L14680 9560
L14700 9590
L14730 9630
L14730 9750
L14700 9800
L14680 9820
" />
<path d="M14230 9390
L14730 9230
L14230 9060
" />
<path d="M13920 8390
L13900 8370
L13880 8320
L13880 8200
L13900 8160
L13920 8130
L13970 8110
L14020 8110
L14090 8130
L14380 8420
L14380 8110
" />
<path d="M7500 11500
L6000 11500
" />
<path d="M7610 11700
L7680 11730
L7800 11730
L7840 11700
L7870 11680
L7890 11630
L7890 11580
L7870 11540
L7840 11510
L7800 11490
L7700 11460
L7650 11440
L7630 11420
L7610 11370
L7610 11320
L7630 11270
L7650 11250
L7700 11230
L7820 11230
L7890 11250
" />
<path d="M8110 11730
L8110 11230
L8230 11230
L8300 11250
L8350 11300
L8370 11350
L8390 11440
L8390 11510
L8370 11610
L8350 11650
L8300 11700
L8230 11730
L8110 11730
" />
<path d="M8590 11580
L8820 11580
" />
<path d="M8540 11730
L8700 11230
L8870 11730
" />
<path d="M9300 11730
L9020 11730
" />
<path d="M9160 11730
L9160 11230
L9110 11300
L9060 11350
L9020 11370
" />
<path d="M9880 11200
L9450 11850
" />
<path d="M10300 11250
L10250 11230
L10180 11230
L10110 11250
L10060 11300
L10040 11350
L10020 11440
L10020 11510
L10040 11610
L10060 11650
L10110 11700
L10180 11730
L10230 11730
L10300 11700
L10320 11680
L10320 11510
L10230 11510
" />
<path d="M10540 11730
L10540 11230
L10730 11230
L10780 11250
L10800 11270
L10820 11320
L10820 11390
L10800 11440
L10780 11460
L10730 11490
L10540 11490
" />
<path d="M11040 11730
L11040 11230
" />
<path d="M11370 11230
L11470 11230
L11520 11250
L11560 11300
L11590 11390
L11590 11560
L11560 11650
L11520 11700
L11470 11730
L11370 11730
L11330 11700
L11280 11650
L11260 11560
L11260 11390
L11280 11300
L11330 11250
L11370 11230
" />
<path d="M11780 11270
L11800 11250
L11850 11230
L11970 11230
L12010 11250
L12040 11270
L12060 11320
L12060 11370
L12040 11440
L11750 11730
L12060 11730
" />
<path d="M6580 10880
L6890 10880
L6720 11070
L6800 11070
L6840 11090
L6870 11110
L6890 11160
L6890 11280
L6870 11330
L6840 11350
L6800 11380
L6650 11380
L6610 11350
L6580 11330
" />
<path d="M13500 9000
L13500 7500
" />
<path d="M13230 9560
L13230 9800
L13460 9820
L13440 9800
L13420 9750
L13420 9630
L13440 9590
L13460 9560
L13510 9540
L13630 9540
L13680 9560
L13700 9590
L13730 9630
L13730 9750
L13700 9800
L13680 9820
" />
<path d="M13230 9390
L13730 9230
L13230 9060
" />
<path d="M13040 8160
L13380 8160
" />
<path d="M12850 8280
L13210 8390
L13210 8090
" />
<path d="M7500 12500
L6000 12500
" />
<path d="M7610 12700
L7680 12730
L7800 12730
L7840 12700
L7870 12680
L7890 12630
L7890 12580
L7870 12540
L7840 12510
L7800 12490
L7700 12460
L7650 12440
L7630 12420
L7610 12370
L7610 12320
L7630 12270
L7650 12250
L7700 12230
L7820 12230
L7890 12250
" />
<path d="M8390 12680
L8370 12700
L8300 12730
L8250 12730
L8180 12700
L8130 12650
L8110 12610
L8090 12510
L8090 12440
L8110 12350
L8130 12300
L8180 12250
L8250 12230
L8300 12230
L8370 12250
L8390 12270
" />
<path d="M8850 12730
L8610 12730
L8610 12230
" />
<path d="M9270 12730
L8990 12730
" />
<path d="M9130 12730
L9130 12230
L9080 12300
L9030 12350
L8990 12370
" />
<path d="M9850 12200
L9420 12850
" />
<path d="M10270 12250
L10220 12230
L10150 12230
L10080 12250
L10030 12300
L10010 12350
L9990 12440
L9990 12510
L10010 12610
L10030 12650
L10080 12700
L10150 12730
L10200 12730
L10270 12700
L10290 12680
L10290 12510
L10200 12510
" />
<path d="M10510 12730
L10510 12230
L10700 12230
L10750 12250
L10770 12270
L10790 12320
L10790 12390
L10770 12440
L10750 12460
L10700 12490
L10510 12490
" />
<path d="M11010 12730
L11010 12230
" />
<path d="M11340 12230
L11440 12230
L11490 12250
L11530 12300
L11560 12390
L11560 12560
L11530 12650
L11490 12700
L11440 12730
L11340 12730
L11300 12700
L11250 12650
L11230 12560
L11230 12390
L11250 12300
L11300 12250
L11340 12230
" />
<path d="M11720 12230
L12030 12230
L11860 12420
L11940 12420
L11980 12440
L12010 12460
L12030 12510
L12030 12630
L12010 12680
L11980 12700
L11940 12730
L11790 12730
L11750 12700
L11720 12680
" />
<path d="M6870 11880
L6630 11880
L6610 12110
L6630 12090
L6680 12070
L6800 12070
L6840 12090
L6870 12110
L6890 12160
L6890 12280
L6870 12330
L6840 12350
L6800 12380
L6680 12380
L6630 12350
L6610 12330
" />
<path d="M16000 29000
L16000 30500
" />
<path d="M15750 28610
L15730 28660
L15730 28730
L15750 28800
L15800 28850
L15850 28870
L15940 28890
L16010 28890
L16110 28870
L16150 28850
L16200 28800
L16230 28730
L16230 28680
L16200 28610
L16180 28590
L16010 28590
L16010 28680
" />
<path d="M16230 28370
L15730 28370
L16230 28090
L15730 28090
" />
<path d="M16230 27850
L15730 27850
L15730 27730
L15750 27660
L15800 27610
L15850 27590
L15940 27570
L16010 27570
L16110 27590
L16150 27610
L16200 27660
L16230 27730
L16230 27850
" />
<path d="M15380 29660
L15380 29750
L15400 29800
L15420 29820
L15500 29870
L15590 29890
L15780 29890
L15830 29870
L15850 29850
L15880 29800
L15880 29700
L15850 29660
L15830 29630
L15780 29610
L15660 29610
L15610 29630
L15590 29660
L15570 29700
L15570 29800
L15590 29850
L15610 29870
L15660 29890
" />
<path d="M17500 11500
L19000 11500
" />
<path d="M15630 11250
L15580 11230
L15510 11230
L15440 11250
L15390 11300
L15370 11350
L15350 11440
L15350 11510
L15370 11610
L15390 11650
L15440 11700
L15510 11730
L15560 11730
L15630 11700
L15650 11680
L15650 11510
L15560 11510
" />
<path d="M15870 11730
L15870 11230
L16060 11230
L16110 11250
L16130 11270
L16150 11320
L16150 11390
L16130 11440
L16110 11460
L16060 11490
L15870 11490
" />
<path d="M16370 11730
L16370 11230
" />
<path d="M16700 11230
L16800 11230
L16850 11250
L16890 11300
L16920 11390
L16920 11560
L16890 11650
L16850 11700
L16800 11730
L16700 11730
L16660 11700
L16610 11650
L16590 11560
L16590 11390
L16610 11300
L16660 11250
L16700 11230
" />
<path d="M17340 11390
L17340 11730
" />
<path d="M17220 11200
L17110 11560
L17410 11560
" />
<path d="M18080 10880
L18410 10880
L18200 11380
" />
<path d="M7500 14500
L6000 14500
" />
<path d="M7560 14230
L7840 14230
" />
<path d="M7700 14730
L7700 14230
" />
<path d="M7960 14230
L8290 14730
" />
<path d="M8290 14230
L7960 14730
" />
<path d="M8490 14730
L8490 14230
L8610 14230
L8680 14250
L8730 14300
L8750 14350
L8770 14440
L8770 14510
L8750 14610
L8730 14650
L8680 14700
L8610 14730
L8490 14730
" />
<path d="M9080 14230
L9130 14230
L9180 14250
L9200 14270
L9230 14320
L9250 14420
L9250 14540
L9230 14630
L9200 14680
L9180 14700
L9130 14730
L9080 14730
L9040 14700
L9010 14680
L8990 14630
L8970 14540
L8970 14420
L8990 14320
L9010 14270
L9040 14250
L9080 14230
" />
<path d="M9830 14200
L9400 14850
" />
<path d="M10250 14250
L10200 14230
L10130 14230
L10060 14250
L10010 14300
L9990 14350
L9970 14440
L9970 14510
L9990 14610
L10010 14650
L10060 14700
L10130 14730
L10180 14730
L10250 14700
L10270 14680
L10270 14510
L10180 14510
" />
<path d="M10490 14730
L10490 14230
L10680 14230
L10730 14250
L10750 14270
L10770 14320
L10770 14390
L10750 14440
L10730 14460
L10680 14490
L10490 14490
" />
<path d="M10990 14730
L10990 14230
" />
<path d="M11320 14230
L11420 14230
L11470 14250
L11510 14300
L11540 14390
L11540 14560
L11510 14650
L11470 14700
L11420 14730
L11320 14730
L11280 14700
L11230 14650
L11210 14560
L11210 14390
L11230 14300
L11280 14250
L11320 14230
" />
<path d="M12010 14730
L11730 14730
" />
<path d="M11870 14730
L11870 14230
L11820 14300
L11770 14350
L11730 14370
" />
<path d="M12440 14390
L12440 14730
" />
<path d="M12320 14200
L12210 14560
L12510 14560
" />
<path d="M6700 14090
L6650 14070
L6630 14040
L6610 14000
L6610 13970
L6630 13920
L6650 13900
L6700 13880
L6800 13880
L6840 13900
L6870 13920
L6890 13970
L6890 14000
L6870 14040
L6840 14070
L6800 14090
L6700 14090
L6650 14110
L6630 14140
L6610 14190
L6610 14280
L6630 14330
L6650 14350
L6700 14380
L6800 14380
L6840 14350
L6870 14330
L6890 14280
L6890 14190
L6870 14140
L6840 14110
L6800 14090
" />
<path d="M15000 29000
L15000 30500
" />
<path d="M14750 28610
L14730 28660
L14730 28730
L14750 28800
L14800 28850
L14850 28870
L14940 28890
L15010 28890
L15110 28870
L15150 28850
L15200 28800
L15230 28730
L15230 28680
L15200 28610
L15180 28590
L15010 28590
L15010 28680
" />
<path d="M15230 28370
L14730 28370
L15230 28090
L14730 28090
" />
<path d="M15230 27850
L14730 27850
L14730 27730
L14750 27660
L14800 27610
L14850 27590
L14940 27570
L15010 27570
L15110 27590
L15150 27610
L15200 27660
L15230 27730
L15230 27850
" />
<path d="M14880 29850
L14880 29750
L14850 29700
L14830 29680
L14760 29630
L14660 29610
L14470 29610
L14420 29630
L14400 29660
L14380 29700
L14380 29800
L14400 29850
L14420 29870
L14470 29890
L14590 29890
L14640 29870
L14660 29850
L14690 29800
L14690 29700
L14660 29660
L14640 29630
L14590 29610
" />
<path d="M7500 15500
L6000 15500
" />
<path d="M7910 15730
L7750 15490
" />
<path d="M7630 15730
L7630 15230
L7820 15230
L7870 15250
L7890 15270
L7910 15320
L7910 15390
L7890 15440
L7870 15460
L7820 15490
L7630 15490
" />
<path d="M8080 15230
L8410 15730
" />
<path d="M8410 15230
L8080 15730
" />
<path d="M8610 15730
L8610 15230
L8730 15230
L8800 15250
L8850 15300
L8870 15350
L8890 15440
L8890 15510
L8870 15610
L8850 15650
L8800 15700
L8730 15730
L8610 15730
" />
<path d="M9200 15230
L9250 15230
L9300 15250
L9320 15270
L9350 15320
L9370 15420
L9370 15540
L9350 15630
L9320 15680
L9300 15700
L9250 15730
L9200 15730
L9160 15700
L9130 15680
L9110 15630
L9090 15540
L9090 15420
L9110 15320
L9130 15270
L9160 15250
L9200 15230
" />
<path d="M9950 15200
L9520 15850
" />
<path d="M10370 15250
L10320 15230
L10250 15230
L10180 15250
L10130 15300
L10110 15350
L10090 15440
L10090 15510
L10110 15610
L10130 15650
L10180 15700
L10250 15730
L10300 15730
L10370 15700
L10390 15680
L10390 15510
L10300 15510
" />
<path d="M10610 15730
L10610 15230
L10800 15230
L10850 15250
L10870 15270
L10890 15320
L10890 15390
L10870 15440
L10850 15460
L10800 15490
L10610 15490
" />
<path d="M11110 15730
L11110 15230
" />
<path d="M11440 15230
L11540 15230
L11590 15250
L11630 15300
L11660 15390
L11660 15560
L11630 15650
L11590 15700
L11540 15730
L11440 15730
L11400 15700
L11350 15650
L11330 15560
L11330 15390
L11350 15300
L11400 15250
L11440 15230
" />
<path d="M12130 15730
L11850 15730
" />
<path d="M11990 15730
L11990 15230
L11940 15300
L11890 15350
L11850 15370
" />
<path d="M12590 15230
L12350 15230
L12330 15460
L12350 15440
L12400 15420
L12520 15420
L12560 15440
L12590 15460
L12610 15510
L12610 15630
L12590 15680
L12560 15700
L12520 15730
L12400 15730
L12350 15700
L12330 15680
" />
<path d="M6650 15380
L6370 15380
" />
<path d="M6510 15380
L6510 14880
L6460 14950
L6410 15000
L6370 15020
" />
<path d="M6960 14880
L7010 14880
L7060 14900
L7080 14920
L7110 14970
L7130 15070
L7130 15190
L7110 15280
L7080 15330
L7060 15350
L7010 15380
L6960 15380
L6920 15350
L6890 15330
L6870 15280
L6850 15190
L6850 15070
L6870 14970
L6890 14920
L6920 14900
L6960 14880
" />
<path d="M13000 29000
L13000 30500
" />
<path d="M12750 28610
L12730 28660
L12730 28730
L12750 28800
L12800 28850
L12850 28870
L12940 28890
L13010 28890
L13110 28870
L13150 28850
L13200 28800
L13230 28730
L13230 28680
L13200 28610
L13180 28590
L13010 28590
L13010 28680
" />
<path d="M13230 28370
L12730 28370
L13230 28090
L12730 28090
" />
<path d="M13230 27850
L12730 27850
L12730 27730
L12750 27660
L12800 27610
L12850 27590
L12940 27570
L13010 27570
L13110 27590
L13150 27610
L13200 27660
L13230 27730
L13230 27850
" />
<path d="M12420 30130
L12400 30110
L12380 30060
L12380 29940
L12400 29900
L12420 29870
L12470 29850
L12520 29850
L12590 29870
L12880 30160
L12880 29850
" />
<path d="M12380 29540
L12380 29490
L12400 29440
L12420 29420
L12470 29390
L12570 29370
L12690 29370
L12780 29390
L12830 29420
L12850 29440
L12880 29490
L12880 29540
L12850 29580
L12830 29610
L12780 29630
L12690 29650
L12570 29650
L12470 29630
L12420 29610
L12400 29580
L12380 29540
" />
<path d="M11000 29000
L11000 30500
" />
<path d="M10750 28610
L10730 28660
L10730 28730
L10750 28800
L10800 28850
L10850 28870
L10940 28890
L11010 28890
L11110 28870
L11150 28850
L11200 28800
L11230 28730
L11230 28680
L11200 28610
L11180 28590
L11010 28590
L11010 28680
" />
<path d="M11230 28370
L10730 28370
L11230 28090
L10730 28090
" />
<path d="M11230 27850
L10730 27850
L10730 27730
L10750 27660
L10800 27610
L10850 27590
L10940 27570
L11010 27570
L11110 27590
L11150 27610
L11200 27660
L11230 27730
L11230 27850
" />
<path d="M10380 30160
L10380 29850
L10570 30020
L10570 29940
L10590 29900
L10610 29870
L10660 29850
L10780 29850
L10830 29870
L10850 29900
L10880 29940
L10880 30090
L10850 30130
L10830 30160
" />
<path d="M10380 29540
L10380 29490
L10400 29440
L10420 29420
L10470 29390
L10570 29370
L10690 29370
L10780 29390
L10830 29420
L10850 29440
L10880 29490
L10880 29540
L10850 29580
L10830 29610
L10780 29630
L10690 29650
L10570 29650
L10470 29630
L10420 29610
L10400 29580
L10380 29540
" />
<path d="M7500 25500
L6000 25500
" />
<path d="M7610 25700
L7680 25730
L7800 25730
L7840 25700
L7870 25680
L7890 25630
L7890 25580
L7870 25540
L7840 25510
L7800 25490
L7700 25460
L7650 25440
L7630 25420
L7610 25370
L7610 25320
L7630 25270
L7650 25250
L7700 25230
L7820 25230
L7890 25250
" />
<path d="M8390 25680
L8370 25700
L8300 25730
L8250 25730
L8180 25700
L8130 25650
L8110 25610
L8090 25510
L8090 25440
L8110 25350
L8130 25300
L8180 25250
L8250 25230
L8300 25230
L8370 25250
L8390 25270
" />
<path d="M8850 25730
L8610 25730
L8610 25230
" />
<path d="M9010 25730
L9010 25230
" />
<path d="M9290 25730
L9080 25440
" />
<path d="M9290 25230
L9010 25510
" />
<path d="M9770 25730
L9490 25730
" />
<path d="M9630 25730
L9630 25230
L9580 25300
L9530 25350
L9490 25370
" />
<path d="M10350 25200
L9920 25850
" />
<path d="M10770 25250
L10720 25230
L10650 25230
L10580 25250
L10530 25300
L10510 25350
L10490 25440
L10490 25510
L10510 25610
L10530 25650
L10580 25700
L10650 25730
L10700 25730
L10770 25700
L10790 25680
L10790 25510
L10700 25510
" />
<path d="M11010 25730
L11010 25230
L11200 25230
L11250 25250
L11270 25270
L11290 25320
L11290 25390
L11270 25440
L11250 25460
L11200 25490
L11010 25490
" />
<path d="M11510 25730
L11510 25230
" />
<path d="M11840 25230
L11940 25230
L11990 25250
L12030 25300
L12060 25390
L12060 25560
L12030 25650
L11990 25700
L11940 25730
L11840 25730
L11800 25700
L11750 25650
L11730 25560
L11730 25390
L11750 25300
L11800 25250
L11840 25230
" />
<path d="M12250 25270
L12270 25250
L12320 25230
L12440 25230
L12480 25250
L12510 25270
L12530 25320
L12530 25370
L12510 25440
L12220 25730
L12530 25730
" />
<path d="M13010 25730
L12730 25730
" />
<path d="M12870 25730
L12870 25230
L12820 25300
L12770 25350
L12730 25370
" />
<path d="M6600 25040
L6600 25380
" />
<path d="M6480 24850
L6370 25210
L6670 25210
" />
<path d="M6960 24880
L7010 24880
L7060 24900
L7080 24920
L7110 24970
L7130 25070
L7130 25190
L7110 25280
L7080 25330
L7060 25350
L7010 25380
L6960 25380
L6920 25350
L6890 25330
L6870 25280
L6850 25190
L6850 25070
L6870 24970
L6890 24920
L6920 24900
L6960 24880
" />
<path d="M7500 26500
L6000 26500
" />
<path d="M7910 26680
L7890 26700
L7820 26730
L7770 26730
L7700 26700
L7650 26650
L7630 26610
L7610 26510
L7610 26440
L7630 26350
L7650 26300
L7700 26250
L7770 26230
L7820 26230
L7890 26250
L7910 26270
" />
<path d="M8130 26460
L8300 26460
" />
<path d="M8370 26730
L8130 26730
L8130 26230
L8370 26230
" />
<path d="M8840 26730
L8560 26730
" />
<path d="M8700 26730
L8700 26230
L8650 26300
L8600 26350
L8560 26370
" />
<path d="M8940 26770
L9320 26770
" />
<path d="M9530 26230
L9580 26230
L9630 26250
L9650 26270
L9680 26320
L9700 26420
L9700 26540
L9680 26630
L9650 26680
L9630 26700
L9580 26730
L9530 26730
L9490 26700
L9460 26680
L9440 26630
L9420 26540
L9420 26420
L9440 26320
L9460 26270
L9490 26250
L9530 26230
" />
<path d="M10280 26200
L9850 26850
" />
<path d="M10700 26250
L10650 26230
L10580 26230
L10510 26250
L10460 26300
L10440 26350
L10420 26440
L10420 26510
L10440 26610
L10460 26650
L10510 26700
L10580 26730
L10630 26730
L10700 26700
L10720 26680
L10720 26510
L10630 26510
" />
<path d="M10940 26730
L10940 26230
L11130 26230
L11180 26250
L11200 26270
L11220 26320
L11220 26390
L11200 26440
L11180 26460
L11130 26490
L10940 26490
" />
<path d="M11440 26730
L11440 26230
" />
<path d="M11770 26230
L11870 26230
L11920 26250
L11960 26300
L11990 26390
L11990 26560
L11960 26650
L11920 26700
L11870 26730
L11770 26730
L11730 26700
L11680 26650
L11660 26560
L11660 26390
L11680 26300
L11730 26250
L11770 26230
" />
<path d="M12460 26730
L12180 26730
" />
<path d="M12320 26730
L12320 26230
L12270 26300
L12220 26350
L12180 26370
" />
<path d="M12630 26230
L12960 26230
L12750 26730
" />
<path d="M6650 26380
L6370 26380
" />
<path d="M6510 26380
L6510 25880
L6460 25950
L6410 26000
L6370 26020
" />
<path d="M7130 26380
L6850 26380
" />
<path d="M6990 26380
L6990 25880
L6940 25950
L6890 26000
L6850 26020
" />
<path d="M7500 18500
L6000 18500
" />
<path d="M7630 18730
L7630 18230
L7800 18580
L7960 18230
L7960 18730
" />
<path d="M8200 18730
L8200 18230
" />
<path d="M8420 18700
L8490 18730
L8610 18730
L8650 18700
L8680 18680
L8700 18630
L8700 18580
L8680 18540
L8650 18510
L8610 18490
L8510 18460
L8460 18440
L8440 18420
L8420 18370
L8420 18320
L8440 18270
L8460 18250
L8510 18230
L8630 18230
L8700 18250
" />
<path d="M9010 18230
L9110 18230
L9160 18250
L9200 18300
L9230 18390
L9230 18560
L9200 18650
L9160 18700
L9110 18730
L9010 18730
L8970 18700
L8920 18650
L8900 18560
L8900 18390
L8920 18300
L8970 18250
L9010 18230
" />
<path d="M9530 18230
L9580 18230
L9630 18250
L9650 18270
L9680 18320
L9700 18420
L9700 18540
L9680 18630
L9650 18680
L9630 18700
L9580 18730
L9530 18730
L9490 18700
L9460 18680
L9440 18630
L9420 18540
L9420 18420
L9440 18320
L9460 18270
L9490 18250
L9530 18230
" />
<path d="M10280 18200
L9850 18850
" />
<path d="M10700 18250
L10650 18230
L10580 18230
L10510 18250
L10460 18300
L10440 18350
L10420 18440
L10420 18510
L10440 18610
L10460 18650
L10510 18700
L10580 18730
L10630 18730
L10700 18700
L10720 18680
L10720 18510
L10630 18510
" />
<path d="M10940 18730
L10940 18230
L11130 18230
L11180 18250
L11200 18270
L11220 18320
L11220 18390
L11200 18440
L11180 18460
L11130 18490
L10940 18490
" />
<path d="M11440 18730
L11440 18230
" />
<path d="M11770 18230
L11870 18230
L11920 18250
L11960 18300
L11990 18390
L11990 18560
L11960 18650
L11920 18700
L11870 18730
L11770 18730
L11730 18700
L11680 18650
L11660 18560
L11660 18390
L11680 18300
L11730 18250
L11770 18230
" />
<path d="M12220 18730
L12320 18730
L12370 18700
L12390 18680
L12440 18610
L12460 18510
L12460 18320
L12440 18270
L12410 18250
L12370 18230
L12270 18230
L12220 18250
L12200 18270
L12180 18320
L12180 18440
L12200 18490
L12220 18510
L12270 18540
L12370 18540
L12410 18510
L12440 18490
L12460 18440
" />
<path d="M6370 17920
L6390 17900
L6440 17880
L6560 17880
L6600 17900
L6630 17920
L6650 17970
L6650 18020
L6630 18090
L6340 18380
L6650 18380
" />
<path d="M7130 18380
L6850 18380
" />
<path d="M6990 18380
L6990 17880
L6940 17950
L6890 18000
L6850 18020
" />
<path d="M17500 13500
L19000 13500
" />
<path d="M15630 13250
L15580 13230
L15510 13230
L15440 13250
L15390 13300
L15370 13350
L15350 13440
L15350 13510
L15370 13610
L15390 13650
L15440 13700
L15510 13730
L15560 13730
L15630 13700
L15650 13680
L15650 13510
L15560 13510
" />
<path d="M15870 13730
L15870 13230
L16060 13230
L16110 13250
L16130 13270
L16150 13320
L16150 13390
L16130 13440
L16110 13460
L16060 13490
L15870 13490
" />
<path d="M16370 13730
L16370 13230
" />
<path d="M16700 13230
L16800 13230
L16850 13250
L16890 13300
L16920 13390
L16920 13560
L16890 13650
L16850 13700
L16800 13730
L16700 13730
L16660 13700
L16610 13650
L16590 13560
L16590 13390
L16610 13300
L16660 13250
L16700 13230
" />
<path d="M17340 13230
L17250 13230
L17200 13250
L17180 13270
L17130 13350
L17110 13440
L17110 13630
L17130 13680
L17150 13700
L17200 13730
L17300 13730
L17340 13700
L17370 13680
L17390 13630
L17390 13510
L17370 13460
L17340 13440
L17300 13420
L17200 13420
L17150 13440
L17130 13460
L17110 13510
" />
<path d="M17840 12880
L18150 12880
L17980 13070
L18060 13070
L18100 13090
L18130 13110
L18150 13160
L18150 13280
L18130 13330
L18100 13350
L18060 13380
L17910 13380
L17870 13350
L17840 13330
" />
<path d="M18630 13380
L18350 13380
" />
<path d="M18490 13380
L18490 12880
L18440 12950
L18390 13000
L18350 13020
" />
<path d="M17500 17500
L19000 17500
" />
<path d="M15150 17250
L15100 17230
L15030 17230
L14960 17250
L14910 17300
L14890 17350
L14870 17440
L14870 17510
L14890 17610
L14910 17650
L14960 17700
L15030 17730
L15080 17730
L15150 17700
L15170 17680
L15170 17510
L15080 17510
" />
<path d="M15390 17730
L15390 17230
L15580 17230
L15630 17250
L15650 17270
L15670 17320
L15670 17390
L15650 17440
L15630 17460
L15580 17490
L15390 17490
" />
<path d="M15890 17730
L15890 17230
" />
<path d="M16220 17230
L16320 17230
L16370 17250
L16410 17300
L16440 17390
L16440 17560
L16410 17650
L16370 17700
L16320 17730
L16220 17730
L16180 17700
L16130 17650
L16110 17560
L16110 17390
L16130 17300
L16180 17250
L16220 17230
" />
<path d="M16910 17730
L16630 17730
" />
<path d="M16770 17730
L16770 17230
L16720 17300
L16670 17350
L16630 17370
" />
<path d="M17200 17440
L17150 17420
L17130 17390
L17110 17350
L17110 17320
L17130 17270
L17150 17250
L17200 17230
L17300 17230
L17340 17250
L17370 17270
L17390 17320
L17390 17350
L17370 17390
L17340 17420
L17300 17440
L17200 17440
L17150 17460
L17130 17490
L17110 17540
L17110 17630
L17130 17680
L17150 17700
L17200 17730
L17300 17730
L17340 17700
L17370 17680
L17390 17630
L17390 17540
L17370 17490
L17340 17460
L17300 17440
" />
<path d="M18150 17380
L17870 17380
" />
<path d="M18010 17380
L18010 16880
L17960 16950
L17910 17000
L17870 17020
" />
<path d="M18350 16920
L18370 16900
L18420 16880
L18540 16880
L18580 16900
L18610 16920
L18630 16970
L18630 17020
L18610 17090
L18320 17380
L18630 17380
" />
<path d="M17500 21500
L19000 21500
" />
<path d="M15150 21250
L15100 21230
L15030 21230
L14960 21250
L14910 21300
L14890 21350
L14870 21440
L14870 21510
L14890 21610
L14910 21650
L14960 21700
L15030 21730
L15080 21730
L15150 21700
L15170 21680
L15170 21510
L15080 21510
" />
<path d="M15390 21730
L15390 21230
L15580 21230
L15630 21250
L15650 21270
L15670 21320
L15670 21390
L15650 21440
L15630 21460
L15580 21490
L15390 21490
" />
<path d="M15890 21730
L15890 21230
" />
<path d="M16220 21230
L16320 21230
L16370 21250
L16410 21300
L16440 21390
L16440 21560
L16410 21650
L16370 21700
L16320 21730
L16220 21730
L16180 21700
L16130 21650
L16110 21560
L16110 21390
L16130 21300
L16180 21250
L16220 21230
" />
<path d="M16630 21270
L16650 21250
L16700 21230
L16820 21230
L16860 21250
L16890 21270
L16910 21320
L16910 21370
L16890 21440
L16600 21730
L16910 21730
" />
<path d="M17370 21230
L17130 21230
L17110 21460
L17130 21440
L17180 21420
L17300 21420
L17340 21440
L17370 21460
L17390 21510
L17390 21630
L17370 21680
L17340 21700
L17300 21730
L17180 21730
L17130 21700
L17110 21680
" />
<path d="M17870 20920
L17890 20900
L17940 20880
L18060 20880
L18100 20900
L18130 20920
L18150 20970
L18150 21020
L18130 21090
L17840 21380
L18150 21380
" />
<path d="M18350 20920
L18370 20900
L18420 20880
L18540 20880
L18580 20900
L18610 20920
L18630 20970
L18630 21020
L18610 21090
L18320 21380
L18630 21380
" />
<path d="M17500 14500
L19000 14500
" />
<path d="M15150 14250
L15100 14230
L15030 14230
L14960 14250
L14910 14300
L14890 14350
L14870 14440
L14870 14510
L14890 14610
L14910 14650
L14960 14700
L15030 14730
L15080 14730
L15150 14700
L15170 14680
L15170 14510
L15080 14510
" />
<path d="M15390 14730
L15390 14230
L15580 14230
L15630 14250
L15650 14270
L15670 14320
L15670 14390
L15650 14440
L15630 14460
L15580 14490
L15390 14490
" />
<path d="M15890 14730
L15890 14230
" />
<path d="M16220 14230
L16320 14230
L16370 14250
L16410 14300
L16440 14390
L16440 14560
L16410 14650
L16370 14700
L16320 14730
L16220 14730
L16180 14700
L16130 14650
L16110 14560
L16110 14390
L16130 14300
L16180 14250
L16220 14230
" />
<path d="M16910 14730
L16630 14730
" />
<path d="M16770 14730
L16770 14230
L16720 14300
L16670 14350
L16630 14370
" />
<path d="M17110 14270
L17130 14250
L17180 14230
L17300 14230
L17340 14250
L17370 14270
L17390 14320
L17390 14370
L17370 14440
L17080 14730
L17390 14730
" />
<path d="M17840 13880
L18150 13880
L17980 14070
L18060 14070
L18100 14090
L18130 14110
L18150 14160
L18150 14280
L18130 14330
L18100 14350
L18060 14380
L17910 14380
L17870 14350
L17840 14330
" />
<path d="M18350 13920
L18370 13900
L18420 13880
L18540 13880
L18580 13900
L18610 13920
L18630 13970
L18630 14020
L18610 14090
L18320 14380
L18630 14380
" />
<path d="M17500 23500
L19000 23500
" />
<path d="M15150 23250
L15100 23230
L15030 23230
L14960 23250
L14910 23300
L14890 23350
L14870 23440
L14870 23510
L14890 23610
L14910 23650
L14960 23700
L15030 23730
L15080 23730
L15150 23700
L15170 23680
L15170 23510
L15080 23510
" />
<path d="M15390 23730
L15390 23230
L15580 23230
L15630 23250
L15650 23270
L15670 23320
L15670 23390
L15650 23440
L15630 23460
L15580 23490
L15390 23490
" />
<path d="M15890 23730
L15890 23230
" />
<path d="M16220 23230
L16320 23230
L16370 23250
L16410 23300
L16440 23390
L16440 23560
L16410 23650
L16370 23700
L16320 23730
L16220 23730
L16180 23700
L16130 23650
L16110 23560
L16110 23390
L16130 23300
L16180 23250
L16220 23230
" />
<path d="M16630 23270
L16650 23250
L16700 23230
L16820 23230
L16860 23250
L16890 23270
L16910 23320
L16910 23370
L16890 23440
L16600 23730
L16910 23730
" />
<path d="M17080 23230
L17410 23230
L17200 23730
" />
<path d="M18150 23380
L17870 23380
" />
<path d="M18010 23380
L18010 22880
L17960 22950
L17910 23000
L17870 23020
" />
<path d="M18320 22880
L18630 22880
L18460 23070
L18540 23070
L18580 23090
L18610 23110
L18630 23160
L18630 23280
L18610 23330
L18580 23350
L18540 23380
L18390 23380
L18350 23350
L18320 23330
" />
<path d="M7500 19500
L6000 19500
" />
<path d="M7610 19700
L7680 19730
L7800 19730
L7840 19700
L7870 19680
L7890 19630
L7890 19580
L7870 19540
L7840 19510
L7800 19490
L7700 19460
L7650 19440
L7630 19420
L7610 19370
L7610 19320
L7630 19270
L7650 19250
L7700 19230
L7820 19230
L7890 19250
" />
<path d="M8390 19680
L8370 19700
L8300 19730
L8250 19730
L8180 19700
L8130 19650
L8110 19610
L8090 19510
L8090 19440
L8110 19350
L8130 19300
L8180 19250
L8250 19230
L8300 19230
L8370 19250
L8390 19270
" />
<path d="M8850 19730
L8610 19730
L8610 19230
" />
<path d="M9010 19730
L9010 19230
" />
<path d="M9290 19730
L9080 19440
" />
<path d="M9290 19230
L9010 19510
" />
<path d="M9600 19230
L9650 19230
L9700 19250
L9720 19270
L9750 19320
L9770 19420
L9770 19540
L9750 19630
L9720 19680
L9700 19700
L9650 19730
L9600 19730
L9560 19700
L9530 19680
L9510 19630
L9490 19540
L9490 19420
L9510 19320
L9530 19270
L9560 19250
L9600 19230
" />
<path d="M10350 19200
L9920 19850
" />
<path d="M10770 19250
L10720 19230
L10650 19230
L10580 19250
L10530 19300
L10510 19350
L10490 19440
L10490 19510
L10510 19610
L10530 19650
L10580 19700
L10650 19730
L10700 19730
L10770 19700
L10790 19680
L10790 19510
L10700 19510
" />
<path d="M11010 19730
L11010 19230
L11200 19230
L11250 19250
L11270 19270
L11290 19320
L11290 19390
L11270 19440
L11250 19460
L11200 19490
L11010 19490
" />
<path d="M11510 19730
L11510 19230
" />
<path d="M11840 19230
L11940 19230
L11990 19250
L12030 19300
L12060 19390
L12060 19560
L12030 19650
L11990 19700
L11940 19730
L11840 19730
L11800 19700
L11750 19650
L11730 19560
L11730 19390
L11750 19300
L11800 19250
L11840 19230
" />
<path d="M12530 19730
L12250 19730
" />
<path d="M12390 19730
L12390 19230
L12340 19300
L12290 19350
L12250 19370
" />
<path d="M13010 19730
L12730 19730
" />
<path d="M12870 19730
L12870 19230
L12820 19300
L12770 19350
L12730 19370
" />
<path d="M6370 18920
L6390 18900
L6440 18880
L6560 18880
L6600 18900
L6630 18920
L6650 18970
L6650 19020
L6630 19090
L6340 19380
L6650 19380
" />
<path d="M6820 18880
L7130 18880
L6960 19070
L7040 19070
L7080 19090
L7110 19110
L7130 19160
L7130 19280
L7110 19330
L7080 19350
L7040 19380
L6890 19380
L6850 19350
L6820 19330
" />
<path d="M17500 15500
L19000 15500
" />
<path d="M15150 15250
L15100 15230
L15030 15230
L14960 15250
L14910 15300
L14890 15350
L14870 15440
L14870 15510
L14890 15610
L14910 15650
L14960 15700
L15030 15730
L15080 15730
L15150 15700
L15170 15680
L15170 15510
L15080 15510
" />
<path d="M15390 15730
L15390 15230
L15580 15230
L15630 15250
L15650 15270
L15670 15320
L15670 15390
L15650 15440
L15630 15460
L15580 15490
L15390 15490
" />
<path d="M15890 15730
L15890 15230
" />
<path d="M16220 15230
L16320 15230
L16370 15250
L16410 15300
L16440 15390
L16440 15560
L16410 15650
L16370 15700
L16320 15730
L16220 15730
L16180 15700
L16130 15650
L16110 15560
L16110 15390
L16130 15300
L16180 15250
L16220 15230
" />
<path d="M16910 15730
L16630 15730
" />
<path d="M16770 15730
L16770 15230
L16720 15300
L16670 15350
L16630 15370
" />
<path d="M17080 15230
L17390 15230
L17220 15420
L17300 15420
L17340 15440
L17370 15460
L17390 15510
L17390 15630
L17370 15680
L17340 15700
L17300 15730
L17150 15730
L17110 15700
L17080 15680
" />
<path d="M17840 14880
L18150 14880
L17980 15070
L18060 15070
L18100 15090
L18130 15110
L18150 15160
L18150 15280
L18130 15330
L18100 15350
L18060 15380
L17910 15380
L17870 15350
L17840 15330
" />
<path d="M18320 14880
L18630 14880
L18460 15070
L18540 15070
L18580 15090
L18610 15110
L18630 15160
L18630 15280
L18610 15330
L18580 15350
L18540 15380
L18390 15380
L18350 15350
L18320 15330
" />
<path d="M14000 29000
L14000 30500
" />
<path d="M13750 28610
L13730 28660
L13730 28730
L13750 28800
L13800 28850
L13850 28870
L13940 28890
L14010 28890
L14110 28870
L14150 28850
L14200 28800
L14230 28730
L14230 28680
L14200 28610
L14180 28590
L14010 28590
L14010 28680
" />
<path d="M14230 28370
L13730 28370
L14230 28090
L13730 28090
" />
<path d="M14230 27850
L13730 27850
L13730 27730
L13750 27660
L13800 27610
L13850 27590
L13940 27570
L14010 27570
L14110 27590
L14150 27610
L14200 27660
L14230 27730
L14230 27850
" />
<path d="M13880 29850
L13880 30130
" />
<path d="M13880 29990
L13380 29990
L13450 30040
L13500 30090
L13520 30130
" />
<path d="M13540 29420
L13880 29420
" />
<path d="M13350 29540
L13710 29650
L13710 29350
" />
<path d="M7500 20500
L6000 20500
" />
<path d="M7910 20680
L7890 20700
L7820 20730
L7770 20730
L7700 20700
L7650 20650
L7630 20610
L7610 20510
L7610 20440
L7630 20350
L7650 20300
L7700 20250
L7770 20230
L7820 20230
L7890 20250
L7910 20270
" />
<path d="M8130 20460
L8300 20460
" />
<path d="M8370 20730
L8130 20730
L8130 20230
L8370 20230
" />
<path d="M8670 20230
L8720 20230
L8770 20250
L8790 20270
L8820 20320
L8840 20420
L8840 20540
L8820 20630
L8790 20680
L8770 20700
L8720 20730
L8670 20730
L8630 20700
L8600 20680
L8580 20630
L8560 20540
L8560 20420
L8580 20320
L8600 20270
L8630 20250
L8670 20230
" />
<path d="M8940 20770
L9320 20770
" />
<path d="M9530 20230
L9580 20230
L9630 20250
L9650 20270
L9680 20320
L9700 20420
L9700 20540
L9680 20630
L9650 20680
L9630 20700
L9580 20730
L9530 20730
L9490 20700
L9460 20680
L9440 20630
L9420 20540
L9420 20420
L9440 20320
L9460 20270
L9490 20250
L9530 20230
" />
<path d="M10280 20200
L9850 20850
" />
<path d="M10700 20250
L10650 20230
L10580 20230
L10510 20250
L10460 20300
L10440 20350
L10420 20440
L10420 20510
L10440 20610
L10460 20650
L10510 20700
L10580 20730
L10630 20730
L10700 20700
L10720 20680
L10720 20510
L10630 20510
" />
<path d="M10940 20730
L10940 20230
L11130 20230
L11180 20250
L11200 20270
L11220 20320
L11220 20390
L11200 20440
L11180 20460
L11130 20490
L10940 20490
" />
<path d="M11440 20730
L11440 20230
" />
<path d="M11770 20230
L11870 20230
L11920 20250
L11960 20300
L11990 20390
L11990 20560
L11960 20650
L11920 20700
L11870 20730
L11770 20730
L11730 20700
L11680 20650
L11660 20560
L11660 20390
L11680 20300
L11730 20250
L11770 20230
" />
<path d="M12270 20440
L12220 20420
L12200 20390
L12180 20350
L12180 20320
L12200 20270
L12220 20250
L12270 20230
L12370 20230
L12410 20250
L12440 20270
L12460 20320
L12460 20350
L12440 20390
L12410 20420
L12370 20440
L12270 20440
L12220 20460
L12200 20490
L12180 20540
L12180 20630
L12200 20680
L12220 20700
L12270 20730
L12370 20730
L12410 20700
L12440 20680
L12460 20630
L12460 20540
L12440 20490
L12410 20460
L12370 20440
" />
<path d="M6370 19920
L6390 19900
L6440 19880
L6560 19880
L6600 19900
L6630 19920
L6650 19970
L6650 20020
L6630 20090
L6340 20380
L6650 20380
" />
<path d="M7080 20040
L7080 20380
" />
<path d="M6960 19850
L6850 20210
L7150 20210
" />
<path d="M10000 29000
L10000 30500
" />
<path d="M9750 28610
L9730 28660
L9730 28730
L9750 28800
L9800 28850
L9850 28870
L9940 28890
L10010 28890
L10110 28870
L10150 28850
L10200 28800
L10230 28730
L10230 28680
L10200 28610
L10180 28590
L10010 28590
L10010 28680
" />
<path d="M10230 28370
L9730 28370
L10230 28090
L9730 28090
" />
<path d="M10230 27850
L9730 27850
L9730 27730
L9750 27660
L9800 27610
L9850 27590
L9940 27570
L10010 27570
L10110 27590
L10150 27610
L10200 27660
L10230 27730
L10230 27850
" />
<path d="M9380 30160
L9380 29850
L9570 30020
L9570 29940
L9590 29900
L9610 29870
L9660 29850
L9780 29850
L9830 29870
L9850 29900
L9880 29940
L9880 30090
L9850 30130
L9830 30160
" />
<path d="M9540 29420
L9880 29420
" />
<path d="M9350 29540
L9710 29650
L9710 29350
" />
<path d="M17500 18500
L19000 18500
" />
<path d="M15150 18250
L15100 18230
L15030 18230
L14960 18250
L14910 18300
L14890 18350
L14870 18440
L14870 18510
L14890 18610
L14910 18650
L14960 18700
L15030 18730
L15080 18730
L15150 18700
L15170 18680
L15170 18510
L15080 18510
" />
<path d="M15390 18730
L15390 18230
L15580 18230
L15630 18250
L15650 18270
L15670 18320
L15670 18390
L15650 18440
L15630 18460
L15580 18490
L15390 18490
" />
<path d="M15890 18730
L15890 18230
" />
<path d="M16220 18230
L16320 18230
L16370 18250
L16410 18300
L16440 18390
L16440 18560
L16410 18650
L16370 18700
L16320 18730
L16220 18730
L16180 18700
L16130 18650
L16110 18560
L16110 18390
L16130 18300
L16180 18250
L16220 18230
" />
<path d="M16630 18270
L16650 18250
L16700 18230
L16820 18230
L16860 18250
L16890 18270
L16910 18320
L16910 18370
L16890 18440
L16600 18730
L16910 18730
" />
<path d="M17110 18270
L17130 18250
L17180 18230
L17300 18230
L17340 18250
L17370 18270
L17390 18320
L17390 18370
L17370 18440
L17080 18730
L17390 18730
" />
<path d="M18150 18380
L17870 18380
" />
<path d="M18010 18380
L18010 17880
L17960 17950
L17910 18000
L17870 18020
" />
<path d="M18610 17880
L18370 17880
L18350 18110
L18370 18090
L18420 18070
L18540 18070
L18580 18090
L18610 18110
L18630 18160
L18630 18280
L18610 18330
L18580 18350
L18540 18380
L18420 18380
L18370 18350
L18350 18330
" />
<path d="M12000 29000
L12000 30500
" />
<path d="M11750 28610
L11730 28660
L11730 28730
L11750 28800
L11800 28850
L11850 28870
L11940 28890
L12010 28890
L12110 28870
L12150 28850
L12200 28800
L12230 28730
L12230 28680
L12200 28610
L12180 28590
L12010 28590
L12010 28680
" />
<path d="M12230 28370
L11730 28370
L12230 28090
L11730 28090
" />
<path d="M12230 27850
L11730 27850
L11730 27730
L11750 27660
L11800 27610
L11850 27590
L11940 27570
L12010 27570
L12110 27590
L12150 27610
L12200 27660
L12230 27730
L12230 27850
" />
<path d="M11420 30130
L11400 30110
L11380 30060
L11380 29940
L11400 29900
L11420 29870
L11470 29850
L11520 29850
L11590 29870
L11880 30160
L11880 29850
" />
<path d="M11380 29390
L11380 29630
L11610 29650
L11590 29630
L11570 29580
L11570 29460
L11590 29420
L11610 29390
L11660 29370
L11780 29370
L11830 29390
L11850 29420
L11880 29460
L11880 29580
L11850 29630
L11830 29650
" />
<path d="M7500 24500
L6000 24500
" />
<path d="M7630 24730
L7630 24230
L7800 24580
L7960 24230
L7960 24730
" />
<path d="M8200 24730
L8200 24230
" />
<path d="M8420 24700
L8490 24730
L8610 24730
L8650 24700
L8680 24680
L8700 24630
L8700 24580
L8680 24540
L8650 24510
L8610 24490
L8510 24460
L8460 24440
L8440 24420
L8420 24370
L8420 24320
L8440 24270
L8460 24250
L8510 24230
L8630 24230
L8700 24250
" />
<path d="M9010 24230
L9110 24230
L9160 24250
L9200 24300
L9230 24390
L9230 24560
L9200 24650
L9160 24700
L9110 24730
L9010 24730
L8970 24700
L8920 24650
L8900 24560
L8900 24390
L8920 24300
L8970 24250
L9010 24230
" />
<path d="M9700 24730
L9420 24730
" />
<path d="M9560 24730
L9560 24230
L9510 24300
L9460 24350
L9420 24370
" />
<path d="M10280 24200
L9850 24850
" />
<path d="M10700 24250
L10650 24230
L10580 24230
L10510 24250
L10460 24300
L10440 24350
L10420 24440
L10420 24510
L10440 24610
L10460 24650
L10510 24700
L10580 24730
L10630 24730
L10700 24700
L10720 24680
L10720 24510
L10630 24510
" />
<path d="M10940 24730
L10940 24230
L11130 24230
L11180 24250
L11200 24270
L11220 24320
L11220 24390
L11200 24440
L11180 24460
L11130 24490
L10940 24490
" />
<path d="M11440 24730
L11440 24230
" />
<path d="M11770 24230
L11870 24230
L11920 24250
L11960 24300
L11990 24390
L11990 24560
L11960 24650
L11920 24700
L11870 24730
L11770 24730
L11730 24700
L11680 24650
L11660 24560
L11660 24390
L11680 24300
L11730 24250
L11770 24230
" />
<path d="M12460 24730
L12180 24730
" />
<path d="M12320 24730
L12320 24230
L12270 24300
L12220 24350
L12180 24370
" />
<path d="M12700 24730
L12800 24730
L12850 24700
L12870 24680
L12920 24610
L12940 24510
L12940 24320
L12920 24270
L12890 24250
L12850 24230
L12750 24230
L12700 24250
L12680 24270
L12660 24320
L12660 24440
L12680 24490
L12700 24510
L12750 24540
L12850 24540
L12890 24510
L12920 24490
L12940 24440
" />
<path d="M6340 23880
L6650 23880
L6480 24070
L6560 24070
L6600 24090
L6630 24110
L6650 24160
L6650 24280
L6630 24330
L6600 24350
L6560 24380
L6410 24380
L6370 24350
L6340 24330
" />
<path d="M7110 23880
L6870 23880
L6850 24110
L6870 24090
L6920 24070
L7040 24070
L7080 24090
L7110 24110
L7130 24160
L7130 24280
L7110 24330
L7080 24350
L7040 24380
L6920 24380
L6870 24350
L6850 24330
" />
<path d="M17500 19500
L19000 19500
" />
<path d="M15150 19250
L15100 19230
L15030 19230
L14960 19250
L14910 19300
L14890 19350
L14870 19440
L14870 19510
L14890 19610
L14910 19650
L14960 19700
L15030 19730
L15080 19730
L15150 19700
L15170 19680
L15170 19510
L15080 19510
" />
<path d="M15390 19730
L15390 19230
L15580 19230
L15630 19250
L15650 19270
L15670 19320
L15670 19390
L15650 19440
L15630 19460
L15580 19490
L15390 19490
" />
<path d="M15890 19730
L15890 19230
" />
<path d="M16220 19230
L16320 19230
L16370 19250
L16410 19300
L16440 19390
L16440 19560
L16410 19650
L16370 19700
L16320 19730
L16220 19730
L16180 19700
L16130 19650
L16110 19560
L16110 19390
L16130 19300
L16180 19250
L16220 19230
" />
<path d="M16630 19270
L16650 19250
L16700 19230
L16820 19230
L16860 19250
L16890 19270
L16910 19320
L16910 19370
L16890 19440
L16600 19730
L16910 19730
" />
<path d="M17080 19230
L17390 19230
L17220 19420
L17300 19420
L17340 19440
L17370 19460
L17390 19510
L17390 19630
L17370 19680
L17340 19700
L17300 19730
L17150 19730
L17110 19700
L17080 19680
" />
<path d="M18150 19380
L17870 19380
" />
<path d="M18010 19380
L18010 18880
L17960 18950
L17910 19000
L17870 19020
" />
<path d="M18580 18880
L18490 18880
L18440 18900
L18420 18920
L18370 19000
L18350 19090
L18350 19280
L18370 19330
L18390 19350
L18440 19380
L18540 19380
L18580 19350
L18610 19330
L18630 19280
L18630 19160
L18610 19110
L18580 19090
L18540 19070
L18440 19070
L18390 19090
L18370 19110
L18350 19160
" />
<path d="M7500 21500
L6000 21500
" />
<path d="M7910 21680
L7890 21700
L7820 21730
L7770 21730
L7700 21700
L7650 21650
L7630 21610
L7610 21510
L7610 21440
L7630 21350
L7650 21300
L7700 21250
L7770 21230
L7820 21230
L7890 21250
L7910 21270
" />
<path d="M8130 21460
L8300 21460
" />
<path d="M8370 21730
L8130 21730
L8130 21230
L8370 21230
" />
<path d="M8670 21230
L8720 21230
L8770 21250
L8790 21270
L8820 21320
L8840 21420
L8840 21540
L8820 21630
L8790 21680
L8770 21700
L8720 21730
L8670 21730
L8630 21700
L8600 21680
L8580 21630
L8560 21540
L8560 21420
L8580 21320
L8600 21270
L8630 21250
L8670 21230
" />
<path d="M8940 21770
L9320 21770
" />
<path d="M9700 21730
L9420 21730
" />
<path d="M9560 21730
L9560 21230
L9510 21300
L9460 21350
L9420 21370
" />
<path d="M10280 21200
L9850 21850
" />
<path d="M10700 21250
L10650 21230
L10580 21230
L10510 21250
L10460 21300
L10440 21350
L10420 21440
L10420 21510
L10440 21610
L10460 21650
L10510 21700
L10580 21730
L10630 21730
L10700 21700
L10720 21680
L10720 21510
L10630 21510
" />
<path d="M10940 21730
L10940 21230
L11130 21230
L11180 21250
L11200 21270
L11220 21320
L11220 21390
L11200 21440
L11180 21460
L11130 21490
L10940 21490
" />
<path d="M11440 21730
L11440 21230
" />
<path d="M11770 21230
L11870 21230
L11920 21250
L11960 21300
L11990 21390
L11990 21560
L11960 21650
L11920 21700
L11870 21730
L11770 21730
L11730 21700
L11680 21650
L11660 21560
L11660 21390
L11680 21300
L11730 21250
L11770 21230
" />
<path d="M12150 21230
L12480 21230
L12270 21730
" />
<path d="M6370 20920
L6390 20900
L6440 20880
L6560 20880
L6600 20900
L6630 20920
L6650 20970
L6650 21020
L6630 21090
L6340 21380
L6650 21380
" />
<path d="M7080 20880
L6990 20880
L6940 20900
L6920 20920
L6870 21000
L6850 21090
L6850 21280
L6870 21330
L6890 21350
L6940 21380
L7040 21380
L7080 21350
L7110 21330
L7130 21280
L7130 21160
L7110 21110
L7080 21090
L7040 21070
L6940 21070
L6890 21090
L6870 21110
L6850 21160
" />
<path d="M17500 16500
L19000 16500
" />
<path d="M15150 16250
L15100 16230
L15030 16230
L14960 16250
L14910 16300
L14890 16350
L14870 16440
L14870 16510
L14890 16610
L14910 16650
L14960 16700
L15030 16730
L15080 16730
L15150 16700
L15170 16680
L15170 16510
L15080 16510
" />
<path d="M15390 16730
L15390 16230
L15580 16230
L15630 16250
L15650 16270
L15670 16320
L15670 16390
L15650 16440
L15630 16460
L15580 16490
L15390 16490
" />
<path d="M15890 16730
L15890 16230
" />
<path d="M16220 16230
L16320 16230
L16370 16250
L16410 16300
L16440 16390
L16440 16560
L16410 16650
L16370 16700
L16320 16730
L16220 16730
L16180 16700
L16130 16650
L16110 16560
L16110 16390
L16130 16300
L16180 16250
L16220 16230
" />
<path d="M16910 16730
L16630 16730
" />
<path d="M16770 16730
L16770 16230
L16720 16300
L16670 16350
L16630 16370
" />
<path d="M17340 16230
L17250 16230
L17200 16250
L17180 16270
L17130 16350
L17110 16440
L17110 16630
L17130 16680
L17150 16700
L17200 16730
L17300 16730
L17340 16700
L17370 16680
L17390 16630
L17390 16510
L17370 16460
L17340 16440
L17300 16420
L17200 16420
L17150 16440
L17130 16460
L17110 16510
" />
<path d="M17840 15880
L18150 15880
L17980 16070
L18060 16070
L18100 16090
L18130 16110
L18150 16160
L18150 16280
L18130 16330
L18100 16350
L18060 16380
L17910 16380
L17870 16350
L17840 16330
" />
<path d="M18580 15880
L18490 15880
L18440 15900
L18420 15920
L18370 16000
L18350 16090
L18350 16280
L18370 16330
L18390 16350
L18440 16380
L18540 16380
L18580 16350
L18610 16330
L18630 16280
L18630 16160
L18610 16110
L18580 16090
L18540 16070
L18440 16070
L18390 16090
L18370 16110
L18350 16160
" />
<path d="M10500 9000
L10500 7500
" />
<path d="M10230 10570
L10230 10260
L10420 10430
L10420 10350
L10440 10310
L10460 10280
L10510 10260
L10630 10260
L10680 10280
L10700 10310
L10730 10350
L10730 10500
L10700 10540
L10680 10570
" />
<path d="M10680 10040
L10700 10020
L10730 10040
L10700 10060
L10680 10040
L10730 10040
" />
<path d="M10230 9850
L10230 9540
L10420 9710
L10420 9630
L10440 9590
L10460 9560
L10510 9540
L10630 9540
L10680 9560
L10700 9590
L10730 9630
L10730 9780
L10700 9820
L10680 9850
" />
<path d="M10230 9390
L10730 9230
L10230 9060
" />
<path d="M10380 8350
L10380 8630
" />
<path d="M10380 8490
L9880 8490
L9950 8540
L10000 8590
L10020 8630
" />
<path d="M9880 8180
L9880 7850
L10380 8060
" />
<path d="M17500 25500
L19000 25500
" />
<path d="M15510 25730
L15510 25230
" />
<path d="M15750 25730
L15750 25230
L15870 25230
L15940 25250
L15990 25300
L16010 25350
L16030 25440
L16030 25510
L16010 25610
L15990 25650
L15940 25700
L15870 25730
L15750 25730
" />
<path d="M16130 25770
L16510 25770
" />
<path d="M16610 25700
L16680 25730
L16800 25730
L16840 25700
L16870 25680
L16890 25630
L16890 25580
L16870 25540
L16840 25510
L16800 25490
L16700 25460
L16650 25440
L16630 25420
L16610 25370
L16610 25320
L16630 25270
L16650 25250
L16700 25230
L16820 25230
L16890 25250
" />
<path d="M17110 25730
L17110 25230
L17230 25230
L17300 25250
L17350 25300
L17370 25350
L17390 25440
L17390 25510
L17370 25610
L17350 25650
L17300 25700
L17230 25730
L17110 25730
" />
<path d="M17870 24920
L17890 24900
L17940 24880
L18060 24880
L18100 24900
L18130 24920
L18150 24970
L18150 25020
L18130 25090
L17840 25380
L18150 25380
" />
<path d="M18320 24880
L18650 24880
L18440 25380
" />
<path d="M17500 22500
L19000 22500
" />
<path d="M15150 22250
L15100 22230
L15030 22230
L14960 22250
L14910 22300
L14890 22350
L14870 22440
L14870 22510
L14890 22610
L14910 22650
L14960 22700
L15030 22730
L15080 22730
L15150 22700
L15170 22680
L15170 22510
L15080 22510
" />
<path d="M15390 22730
L15390 22230
L15580 22230
L15630 22250
L15650 22270
L15670 22320
L15670 22390
L15650 22440
L15630 22460
L15580 22490
L15390 22490
" />
<path d="M15890 22730
L15890 22230
" />
<path d="M16220 22230
L16320 22230
L16370 22250
L16410 22300
L16440 22390
L16440 22560
L16410 22650
L16370 22700
L16320 22730
L16220 22730
L16180 22700
L16130 22650
L16110 22560
L16110 22390
L16130 22300
L16180 22250
L16220 22230
" />
<path d="M16630 22270
L16650 22250
L16700 22230
L16820 22230
L16860 22250
L16890 22270
L16910 22320
L16910 22370
L16890 22440
L16600 22730
L16910 22730
" />
<path d="M17340 22230
L17250 22230
L17200 22250
L17180 22270
L17130 22350
L17110 22440
L17110 22630
L17130 22680
L17150 22700
L17200 22730
L17300 22730
L17340 22700
L17370 22680
L17390 22630
L17390 22510
L17370 22460
L17340 22440
L17300 22420
L17200 22420
L17150 22440
L17130 22460
L17110 22510
" />
<path d="M17840 21880
L18150 21880
L17980 22070
L18060 22070
L18100 22090
L18130 22110
L18150 22160
L18150 22280
L18130 22330
L18100 22350
L18060 22380
L17910 22380
L17870 22350
L17840 22330
" />
<path d="M18320 21880
L18650 21880
L18440 22380
" />
<path d="M17500 20500
L19000 20500
" />
<path d="M15150 20250
L15100 20230
L15030 20230
L14960 20250
L14910 20300
L14890 20350
L14870 20440
L14870 20510
L14890 20610
L14910 20650
L14960 20700
L15030 20730
L15080 20730
L15150 20700
L15170 20680
L15170 20510
L15080 20510
" />
<path d="M15390 20730
L15390 20230
L15580 20230
L15630 20250
L15650 20270
L15670 20320
L15670 20390
L15650 20440
L15630 20460
L15580 20490
L15390 20490
" />
<path d="M15890 20730
L15890 20230
" />
<path d="M16220 20230
L16320 20230
L16370 20250
L16410 20300
L16440 20390
L16440 20560
L16410 20650
L16370 20700
L16320 20730
L16220 20730
L16180 20700
L16130 20650
L16110 20560
L16110 20390
L16130 20300
L16180 20250
L16220 20230
" />
<path d="M16630 20270
L16650 20250
L16700 20230
L16820 20230
L16860 20250
L16890 20270
L16910 20320
L16910 20370
L16890 20440
L16600 20730
L16910 20730
" />
<path d="M17340 20390
L17340 20730
" />
<path d="M17220 20200
L17110 20560
L17410 20560
" />
<path d="M18150 20380
L17870 20380
" />
<path d="M18010 20380
L18010 19880
L17960 19950
L17910 20000
L17870 20020
" />
<path d="M18440 20090
L18390 20070
L18370 20040
L18350 20000
L18350 19970
L18370 19920
L18390 19900
L18440 19880
L18540 19880
L18580 19900
L18610 19920
L18630 19970
L18630 20000
L18610 20040
L18580 20070
L18540 20090
L18440 20090
L18390 20110
L18370 20140
L18350 20190
L18350 20280
L18370 20330
L18390 20350
L18440 20380
L18540 20380
L18580 20350
L18610 20330
L18630 20280
L18630 20190
L18610 20140
L18580 20110
L18540 20090
" />
<path d="M17500 26500
L19000 26500
" />
<path d="M15510 26730
L15510 26230
" />
<path d="M15750 26730
L15750 26230
L15870 26230
L15940 26250
L15990 26300
L16010 26350
L16030 26440
L16030 26510
L16010 26610
L15990 26650
L15940 26700
L15870 26730
L15750 26730
" />
<path d="M16130 26770
L16510 26770
" />
<path d="M16610 26700
L16680 26730
L16800 26730
L16840 26700
L16870 26680
L16890 26630
L16890 26580
L16870 26540
L16840 26510
L16800 26490
L16700 26460
L16650 26440
L16630 26420
L16610 26370
L16610 26320
L16630 26270
L16650 26250
L16700 26230
L16820 26230
L16890 26250
" />
<path d="M17390 26680
L17370 26700
L17300 26730
L17250 26730
L17180 26700
L17130 26650
L17110 26610
L17090 26510
L17090 26440
L17110 26350
L17130 26300
L17180 26250
L17250 26230
L17300 26230
L17370 26250
L17390 26270
" />
<path d="M17870 25920
L17890 25900
L17940 25880
L18060 25880
L18100 25900
L18130 25920
L18150 25970
L18150 26020
L18130 26090
L17840 26380
L18150 26380
" />
<path d="M18440 26090
L18390 26070
L18370 26040
L18350 26000
L18350 25970
L18370 25920
L18390 25900
L18440 25880
L18540 25880
L18580 25900
L18610 25920
L18630 25970
L18630 26000
L18610 26040
L18580 26070
L18540 26090
L18440 26090
L18390 26110
L18370 26140
L18350 26190
L18350 26280
L18370 26330
L18390 26350
L18440 26380
L18540 26380
L18580 26350
L18610 26330
L18630 26280
L18630 26190
L18610 26140
L18580 26110
L18540 26090
" />
<path d="M7500 23500
L6000 23500
" />
<path d="M7630 23730
L7630 23230
L7800 23580
L7960 23230
L7960 23730
" />
<path d="M8290 23230
L8390 23230
L8440 23250
L8480 23300
L8510 23390
L8510 23560
L8480 23650
L8440 23700
L8390 23730
L8290 23730
L8250 23700
L8200 23650
L8180 23560
L8180 23390
L8200 23300
L8250 23250
L8290 23230
" />
<path d="M8700 23700
L8770 23730
L8890 23730
L8930 23700
L8960 23680
L8980 23630
L8980 23580
L8960 23540
L8930 23510
L8890 23490
L8790 23460
L8740 23440
L8720 23420
L8700 23370
L8700 23320
L8720 23270
L8740 23250
L8790 23230
L8910 23230
L8980 23250
" />
<path d="M9200 23730
L9200 23230
" />
<path d="M9700 23730
L9420 23730
" />
<path d="M9560 23730
L9560 23230
L9510 23300
L9460 23350
L9420 23370
" />
<path d="M10280 23200
L9850 23850
" />
<path d="M10700 23250
L10650 23230
L10580 23230
L10510 23250
L10460 23300
L10440 23350
L10420 23440
L10420 23510
L10440 23610
L10460 23650
L10510 23700
L10580 23730
L10630 23730
L10700 23700
L10720 23680
L10720 23510
L10630 23510
" />
<path d="M10940 23730
L10940 23230
L11130 23230
L11180 23250
L11200 23270
L11220 23320
L11220 23390
L11200 23440
L11180 23460
L11130 23490
L10940 23490
" />
<path d="M11440 23730
L11440 23230
" />
<path d="M11770 23230
L11870 23230
L11920 23250
L11960 23300
L11990 23390
L11990 23560
L11960 23650
L11920 23700
L11870 23730
L11770 23730
L11730 23700
L11680 23650
L11660 23560
L11660 23390
L11680 23300
L11730 23250
L11770 23230
" />
<path d="M12180 23270
L12200 23250
L12250 23230
L12370 23230
L12410 23250
L12440 23270
L12460 23320
L12460 23370
L12440 23440
L12150 23730
L12460 23730
" />
<path d="M12770 23230
L12820 23230
L12870 23250
L12890 23270
L12920 23320
L12940 23420
L12940 23540
L12920 23630
L12890 23680
L12870 23700
L12820 23730
L12770 23730
L12730 23700
L12700 23680
L12680 23630
L12660 23540
L12660 23420
L12680 23320
L12700 23270
L12730 23250
L12770 23230
" />
<path d="M6340 22880
L6650 22880
L6480 23070
L6560 23070
L6600 23090
L6630 23110
L6650 23160
L6650 23280
L6630 23330
L6600 23350
L6560 23380
L6410 23380
L6370 23350
L6340 23330
" />
<path d="M6940 23090
L6890 23070
L6870 23040
L6850 23000
L6850 22970
L6870 22920
L6890 22900
L6940 22880
L7040 22880
L7080 22900
L7110 22920
L7130 22970
L7130 23000
L7110 23040
L7080 23070
L7040 23090
L6940 23090
L6890 23110
L6870 23140
L6850 23190
L6850 23280
L6870 23330
L6890 23350
L6940 23380
L7040 23380
L7080 23350
L7110 23330
L7130 23280
L7130 23190
L7110 23140
L7080 23110
L7040 23090
" />
<path d="M7500 17500
L6000 17500
" />
<path d="M7630 17730
L7630 17230
L7800 17580
L7960 17230
L7960 17730
" />
<path d="M8290 17230
L8390 17230
L8440 17250
L8480 17300
L8510 17390
L8510 17560
L8480 17650
L8440 17700
L8390 17730
L8290 17730
L8250 17700
L8200 17650
L8180 17560
L8180 17390
L8200 17300
L8250 17250
L8290 17230
" />
<path d="M8700 17700
L8770 17730
L8890 17730
L8930 17700
L8960 17680
L8980 17630
L8980 17580
L8960 17540
L8930 17510
L8890 17490
L8790 17460
L8740 17440
L8720 17420
L8700 17370
L8700 17320
L8720 17270
L8740 17250
L8790 17230
L8910 17230
L8980 17250
" />
<path d="M9200 17730
L9200 17230
" />
<path d="M9530 17230
L9580 17230
L9630 17250
L9650 17270
L9680 17320
L9700 17420
L9700 17540
L9680 17630
L9650 17680
L9630 17700
L9580 17730
L9530 17730
L9490 17700
L9460 17680
L9440 17630
L9420 17540
L9420 17420
L9440 17320
L9460 17270
L9490 17250
L9530 17230
" />
<path d="M10280 17200
L9850 17850
" />
<path d="M10700 17250
L10650 17230
L10580 17230
L10510 17250
L10460 17300
L10440 17350
L10420 17440
L10420 17510
L10440 17610
L10460 17650
L10510 17700
L10580 17730
L10630 17730
L10700 17700
L10720 17680
L10720 17510
L10630 17510
" />
<path d="M10940 17730
L10940 17230
L11130 17230
L11180 17250
L11200 17270
L11220 17320
L11220 17390
L11200 17440
L11180 17460
L11130 17490
L10940 17490
" />
<path d="M11440 17730
L11440 17230
" />
<path d="M11770 17230
L11870 17230
L11920 17250
L11960 17300
L11990 17390
L11990 17560
L11960 17650
L11920 17700
L11870 17730
L11770 17730
L11730 17700
L11680 17650
L11660 17560
L11660 17390
L11680 17300
L11730 17250
L11770 17230
" />
<path d="M12460 17730
L12180 17730
" />
<path d="M12320 17730
L12320 17230
L12270 17300
L12220 17350
L12180 17370
" />
<path d="M12770 17230
L12820 17230
L12870 17250
L12890 17270
L12920 17320
L12940 17420
L12940 17540
L12920 17630
L12890 17680
L12870 17700
L12820 17730
L12770 17730
L12730 17700
L12700 17680
L12680 17630
L12660 17540
L12660 17420
L12680 17320
L12700 17270
L12730 17250
L12770 17230
" />
<path d="M6650 17380
L6370 17380
" />
<path d="M6510 17380
L6510 16880
L6460 16950
L6410 17000
L6370 17020
" />
<path d="M6890 17380
L6990 17380
L7040 17350
L7060 17330
L7110 17260
L7130 17160
L7130 16970
L7110 16920
L7080 16900
L7040 16880
L6940 16880
L6890 16900
L6870 16920
L6850 16970
L6850 17090
L6870 17140
L6890 17160
L6940 17190
L7040 17190
L7080 17160
L7110 17140
L7130 17090
" />
<path d="M17500 12500
L19000 12500
" />
<path d="M15630 12250
L15580 12230
L15510 12230
L15440 12250
L15390 12300
L15370 12350
L15350 12440
L15350 12510
L15370 12610
L15390 12650
L15440 12700
L15510 12730
L15560 12730
L15630 12700
L15650 12680
L15650 12510
L15560 12510
" />
<path d="M15870 12730
L15870 12230
L16060 12230
L16110 12250
L16130 12270
L16150 12320
L16150 12390
L16130 12440
L16110 12460
L16060 12490
L15870 12490
" />
<path d="M16370 12730
L16370 12230
" />
<path d="M16700 12230
L16800 12230
L16850 12250
L16890 12300
L16920 12390
L16920 12560
L16890 12650
L16850 12700
L16800 12730
L16700 12730
L16660 12700
L16610 12650
L16590 12560
L16590 12390
L16610 12300
L16660 12250
L16700 12230
" />
<path d="M17370 12230
L17130 12230
L17110 12460
L17130 12440
L17180 12420
L17300 12420
L17340 12440
L17370 12460
L17390 12510
L17390 12630
L17370 12680
L17340 12700
L17300 12730
L17180 12730
L17130 12700
L17110 12680
" />
<path d="M17870 11920
L17890 11900
L17940 11880
L18060 11880
L18100 11900
L18130 11920
L18150 11970
L18150 12020
L18130 12090
L17840 12380
L18150 12380
" />
<path d="M18390 12380
L18490 12380
L18540 12350
L18560 12330
L18610 12260
L18630 12160
L18630 11970
L18610 11920
L18580 11900
L18540 11880
L18440 11880
L18390 11900
L18370 11920
L18350 11970
L18350 12090
L18370 12140
L18390 12160
L18440 12190
L18540 12190
L18580 12160
L18610 12140
L18630 12090
" />
<path d="M9000 29000
L9000 30500
" />
<path d="M8750 28610
L8730 28660
L8730 28730
L8750 28800
L8800 28850
L8850 28870
L8940 28890
L9010 28890
L9110 28870
L9150 28850
L9200 28800
L9230 28730
L9230 28680
L9200 28610
L9180 28590
L9010 28590
L9010 28680
" />
<path d="M9230 28370
L8730 28370
L9230 28090
L8730 28090
" />
<path d="M9230 27850
L8730 27850
L8730 27730
L8750 27660
L8800 27610
L8850 27590
L8940 27570
L9010 27570
L9110 27590
L9150 27610
L9200 27660
L9230 27730
L9230 27850
" />
<path d="M8380 30160
L8380 29850
L8570 30020
L8570 29940
L8590 29900
L8610 29870
L8660 29850
L8780 29850
L8830 29870
L8850 29900
L8880 29940
L8880 30090
L8850 30130
L8830 30160
" />
<path d="M8880 29610
L8880 29510
L8850 29460
L8830 29440
L8760 29390
L8660 29370
L8470 29370
L8420 29390
L8400 29420
L8380 29460
L8380 29560
L8400 29610
L8420 29630
L8470 29650
L8590 29650
L8640 29630
L8660 29610
L8690 29560
L8690 29460
L8660 29420
L8640 29390
L8590 29370
" />
<path d="M10070 6200
L9910 5960
" />
<path d="M9790 6200
L9790 5700
L9980 5700
L10030 5720
L10050 5740
L10070 5790
L10070 5860
L10050 5910
L10030 5930
L9980 5960
L9790 5960
" />
<path d="M10500 6200
L10500 5930
L10480 5890
L10430 5860
L10340 5860
L10290 5890
" />
<path d="M10500 6170
L10460 6200
L10340 6200
L10290 6170
L10270 6120
L10270 6080
L10290 6030
L10340 6010
L10460 6010
L10500 5980
" />
<path d="M10720 6170
L10760 6200
L10860 6200
L10910 6170
L10930 6120
L10930 6100
L10910 6050
L10860 6030
L10790 6030
L10740 6010
L10720 5960
L10720 5930
L10740 5890
L10790 5860
L10860 5860
L10910 5890
" />
<path d="M11140 5860
L11140 6360
" />
<path d="M11140 5890
L11190 5860
L11280 5860
L11330 5890
L11350 5910
L11380 5960
L11380 6100
L11350 6150
L11330 6170
L11280 6200
L11190 6200
L11140 6170
" />
<path d="M11590 6200
L11590 5700
" />
<path d="M11590 5890
L11640 5860
L11730 5860
L11780 5890
L11800 5910
L11830 5960
L11830 6100
L11800 6150
L11780 6170
L11730 6200
L11640 6200
L11590 6170
" />
<path d="M12230 6170
L12180 6200
L12090 6200
L12040 6170
L12020 6120
L12020 5930
L12040 5890
L12090 5860
L12180 5860
L12230 5890
L12250 5930
L12250 5980
L12020 6030
" />
<path d="M12470 6200
L12470 5860
" />
<path d="M12470 5960
L12490 5910
L12520 5890
L12560 5860
L12610 5860
" />
<path d="M12780 6200
L12780 5860
" />
<path d="M12780 5960
L12800 5910
L12830 5890
L12870 5860
L12920 5860
" />
<path d="M13040 5860
L13160 6200
" />
<path d="M13280 5860
L13160 6200
L13110 6320
L13090 6340
L13040 6360
" />
<path d="M13350 6240
L13730 6240
" />
<path d="M13850 6200
L13850 5700
L14040 5700
L14090 5720
L14110 5740
L14130 5790
L14130 5860
L14110 5910
L14090 5930
L14040 5960
L13850 5960
" />
<path d="M14350 6200
L14350 5860
" />
<path d="M14350 5700
L14330 5720
L14350 5740
L14370 5720
L14350 5700
L14350 5740
" />
<path d="M14470 6240
L14850 6240
" />
<path d="M14920 5700
L15230 5700
L15060 5890
L15140 5890
L15180 5910
L15210 5930
L15230 5980
L15230 6100
L15210 6150
L15180 6170
L15140 6200
L14990 6200
L14950 6170
L14920 6150
" />
</g>
<g style="fill:#000000; fill-opacity:0.0; 
stroke:#000000; stroke-width:0; stroke-opacity:1; 
stroke-linecap:round; stroke-linejoin:round;">
</g>
<g style="fill:#000000; fill-opacity:0.0; 
stroke:#000000; stroke-width:100; stroke-opacity:1; 
stroke-linecap:round; stroke-linejoin:round;">
<rect x="25100" y="14000" width="800" height="2000" rx="0" />
</g>
<g style="fill:#000000; fill-opacity:0.0; 
stroke:#000000; stroke-width:60; stroke-opacity:1; 
stroke-linecap:round; stroke-linejoin:round;">
<path d="M25500 14000
L25500 13500
" />
<path d="M25500 16000
L25500 16500
" />
<path d="M24900 15090
L24660 15250
" />
<path d="M24900 15370
L24400 15370
L24400 15180
L24420 15130
L24440 15110
L24490 15090
L24560 15090
L24610 15110
L24630 15130
L24660 15180
L24660 15370
" />
<path d="M24900 14610
L24900 14890
" />
<path d="M24900 14750
L24400 14750
L24470 14800
L24520 14850
L24540 14890
" />
<path d="M26500 15340
L26500 15620
" />
<path d="M26500 15480
L26000 15480
L26070 15530
L26120 15580
L26140 15620
" />
<path d="M26000 14880
L26000 15120
L26230 15140
L26210 15120
L26190 15070
L26190 14950
L26210 14910
L26230 14880
L26280 14860
L26400 14860
L26450 14880
L26470 14910
L26500 14950
L26500 15070
L26470 15120
L26450 15140
" />
<path d="M26000 14550
L26000 14500
L26020 14450
L26040 14430
L26090 14400
L26190 14380
L26310 14380
L26400 14400
L26450 14430
L26470 14450
L26500 14500
L26500 14550
L26470 14590
L26450 14620
L26400 14640
L26310 14660
L26190 14660
L26090 14640
L26040 14620
L26020 14590
L26000 14550
" />
</g>
<g style="fill:#000000; fill-opacity:0.0; 
stroke:#000000; stroke-width:0; stroke-opacity:1; 
stroke-linecap:round; stroke-linejoin:round;">
</g>
<g style="fill:#000000; fill-opacity:0.0; 
stroke:#000000; stroke-width:60; stroke-opacity:1; 
stroke-linecap:round; stroke-linejoin:round;">
<polyline fill="none;"
points="25000,22000
26000,22000
" /> 
<polyline fill="none;"
points="25750,22300
26150,22750
25900,22700
" /> 
<polyline fill="none;"
points="25900,22150
26300,22600
26050,22550
" /> 
</g>
<g style="fill:#000000; fill-opacity:1.0; 
stroke:#000000; stroke-width:60; stroke-opacity:1; 
stroke-linecap:round; stroke-linejoin:round;">
<polyline style="fill-rule:evenodd;"
points="25000,21000
25500,22000
26000,21000
" /> 
</g>
<g style="fill:#000000; fill-opacity:0.0; 
stroke:#000000; stroke-width:60; stroke-opacity:1; 
stroke-linecap:round; stroke-linejoin:round;">
<path d="M25500 22000
L25500 23500
" />
<path d="M25380 22640
L25380 22860
" />
<path d="M25380 22750
L24980 22750
L25040 22790
L25080 22830
L25100 22860
" />
<path d="M25500 21000
L25500 19500
" />
<path d="M25020 20360
L25000 20340
L24980 20310
L24980 20210
L25000 20170
L25020 20150
L25060 20140
L25100 20140
L25150 20150
L25380 20380
L25380 20140
" />
<path d="M24700 21800
L24700 22040
L24200 22040
" />
<path d="M24430 21640
L24430 21470
" />
<path d="M24700 21400
L24700 21640
L24200 21640
L24200 21400
" />
<path d="M24700 21190
L24200 21190
L24200 21070
L24220 21000
L24270 20950
L24320 20930
L24410 20910
L24480 20910
L24580 20930
L24620 20950
L24670 21000
L24700 21070
L24700 21190
" />
<path d="M19000 11500
L25500 11500
" />
<path d="M25500 11500
L25500 13500
" />
<path d="M25500 16500
L25500 19500
" />
<path d="M25500 23500
L25500 31500
" />
<path d="M25500 31500
L16000 31500
" />
<path d="M16000 31500
L16000 30500
" />
</g> 
</svg>
