<?xml version="1.0" standalone="no"?>
 <!DOCTYPE svg PUBLIC "-//W3C//DTD SVG 1.1//EN" 
 "http://www.w3.org/Graphics/SVG/1.1/DTD/svg11.dtd"> 
<svg xmlns="http://www.w3.org/2000/svg" version="1.1" 
    width="29.7002cm" height="21.0007cm" viewBox="0 0 116930 82680 ">
<title>SVG Picture created as taster_schaltung.sch.svg date 2018/02/24 21:07:33 </title>
  <desc>Picture generated by Eeschema-SVG </desc>
<g style="fill:#000000; fill-opacity:1;stroke:#000000; stroke-opacity:1;
stroke-linecap:round; stroke-linejoin:round; "
 transform="translate(0 0) scale(1 1)">
</g>
<g style="fill:#000000; fill-opacity:0.0; 
stroke:#000000; stroke-width:0; stroke-opacity:1; 
stroke-linecap:round; stroke-linejoin:round;">
</g>
<g style="fill:#000000; fill-opacity:0.0; 
stroke:#000000; stroke-width:100; stroke-opacity:1; 
stroke-linecap:round; stroke-linejoin:round;">
<rect x="28100" y="10500" width="800" height="2000" rx="0" />
</g>
<g style="fill:#000000; fill-opacity:0.0; 
stroke:#000000; stroke-width:60; stroke-opacity:1; 
stroke-linecap:round; stroke-linejoin:round;">
<path d="M28500 10500
L28500 10000
" />
<path d="M28500 12500
L28500 13000
" />
<path d="M27900 11590
L27660 11750
" />
<path d="M27900 11870
L27400 11870
L27400 11680
L27420 11630
L27440 11610
L27490 11590
L27560 11590
L27610 11610
L27630 11630
L27660 11680
L27660 11870
" />
<path d="M27900 11110
L27900 11390
" />
<path d="M27900 11250
L27400 11250
L27470 11300
L27520 11350
L27540 11390
" />
<path d="M29700 11560
L29700 11840
" />
<path d="M29700 11700
L29200 11700
L29270 11750
L29320 11800
L29340 11840
" />
<path d="M29700 11340
L29200 11340
" />
<path d="M29510 11290
L29700 11150
" />
<path d="M29360 11150
L29550 11340
" />
</g>
<g style="fill:#000000; fill-opacity:0.0; 
stroke:#000000; stroke-width:0; stroke-opacity:1; 
stroke-linecap:round; stroke-linejoin:round;">
</g>
<g style="fill:#000000; fill-opacity:0.0; 
stroke:#000000; stroke-width:50; stroke-opacity:1; 
stroke-linecap:round; stroke-linejoin:round;">
<path d="M11730 15140
L11730 14950
" />
<path d="M11730 14860
L11710 14870
L11730 14880
L11740 14870
L11730 14860
L11730 14880
" />
<path d="M11860 14950
L11860 15140
" />
<path d="M11860 14980
L11870 14960
L11900 14950
L11940 14950
L11960 14960
L11980 14990
L11980 15140
" />
<path d="M12070 14950
L12170 14950
" />
<path d="M12110 14860
L12110 15100
L12120 15120
L12150 15140
L12170 15140
" />
<path d="M12370 15120
L12350 15140
L12290 15140
L12270 15120
L12250 15100
L12250 14990
L12270 14960
L12290 14950
L12350 14950
L12370 14960
L12390 14990
L12390 15020
L12250 15040
" />
<path d="M12510 15140
L12510 14950
" />
<path d="M12510 15000
L12520 14980
L12530 14960
L12560 14950
L12590 14950
" />
<path d="M12680 14950
L12680 15140
" />
<path d="M12680 14980
L12690 14960
L12720 14950
L12760 14950
L12780 14960
L12800 14990
L12800 15140
" />
<path d="M13050 15140
L13050 14990
L13030 14960
L13010 14950
L12950 14950
L12930 14960
" />
<path d="M13050 15120
L13020 15140
L12950 15140
L12930 15120
L12910 15100
L12910 15070
L12930 15040
L12950 15030
L13020 15030
L13050 15020
" />
<path d="M13220 15140
L13190 15120
L13180 15100
L13180 14860
" />
<path d="M13680 15140
L13520 15140
" />
<path d="M13600 15140
L13600 14860
L13580 14900
L13550 14920
L13520 14940
" />
<path d="M13810 15110
L13820 15120
L13810 15140
L13790 15120
L13810 15110
L13810 15140
" />
<path d="M13980 14980
L13950 14960
L13940 14950
L13920 14920
L13920 14910
L13940 14880
L13950 14870
L13980 14860
L14030 14860
L14060 14870
L14070 14880
L14080 14910
L14080 14920
L14070 14950
L14060 14960
L14030 14980
L13980 14980
L13950 14990
L13940 15000
L13920 15030
L13920 15080
L13940 15110
L13950 15120
L13980 15140
L14030 15140
L14060 15120
L14070 15110
L14080 15080
L14080 15030
L14070 15000
L14060 14990
L14030 14980
" />
<path d="M14210 15140
L14210 14860
" />
<path d="M14230 15030
L14310 15140
" />
<path d="M14310 14950
L14210 15060
" />
<path d="M14650 14950
L14650 15230
" />
<path d="M14650 14960
L14670 14950
L14730 14950
L14750 14960
L14770 14980
L14780 15000
L14780 15080
L14770 15110
L14750 15120
L14730 15140
L14670 15140
L14650 15120
" />
<path d="M15020 14950
L15020 15140
" />
<path d="M14900 14950
L14900 15100
L14910 15120
L14940 15140
L14980 15140
L15000 15120
L15020 15110
" />
<path d="M15190 15140
L15160 15120
L15150 15100
L15150 14860
" />
<path d="M15340 15140
L15310 15120
L15300 15100
L15300 14860
" />
<path d="M15570 14950
L15570 15140
" />
<path d="M15450 14950
L15450 15100
L15460 15120
L15490 15140
L15530 15140
L15550 15120
L15570 15110
" />
<path d="M15700 14950
L15700 15230
" />
<path d="M15700 14960
L15720 14950
L15780 14950
L15800 14960
L15820 14980
L15830 15000
L15830 15080
L15820 15110
L15800 15120
L15780 15140
L15720 15140
L15700 15120
" />
<path d="M15930 15120
L15960 15140
L16010 15140
L16040 15120
L16050 15100
L16050 15080
L16040 15060
L16010 15040
L15970 15040
L15950 15030
L15930 15000
L15930 14990
L15950 14960
L15970 14950
L16010 14950
L16040 14960
" />
<path d="M16350 14950
L16450 14950
" />
<path d="M16390 14860
L16390 15100
L16400 15120
L16430 15140
L16450 15140
" />
<path d="M16590 15140
L16560 15120
L16550 15110
L16530 15080
L16530 15000
L16550 14980
L16560 14960
L16590 14950
L16630 14950
L16650 14960
L16670 14980
L16680 15000
L16680 15080
L16670 15110
L16650 15120
L16630 15140
L16590 15140
" />
<path d="M16980 14860
L17150 14860
L17060 14960
L17100 14960
L17130 14980
L17140 14990
L17150 15020
L17150 15080
L17140 15110
L17130 15120
L17100 15140
L17020 15140
L16990 15120
L16980 15110
" />
<path d="M17280 15110
L17290 15120
L17280 15140
L17260 15120
L17280 15110
L17280 15140
" />
<path d="M17380 14860
L17550 14860
L17460 14960
L17500 14960
L17530 14980
L17540 14990
L17550 15020
L17550 15080
L17540 15110
L17530 15120
L17500 15140
L17420 15140
L17390 15120
L17380 15110
" />
<path d="M17640 14860
L17730 15140
L17820 14860
" />
</g>
<g style="fill:#000000; fill-opacity:0.0; 
stroke:#000000; stroke-width:60; stroke-opacity:1; 
stroke-linecap:round; stroke-linejoin:round;">
<rect x="11500" y="11000" width="10000" height="20000" rx="0" />
<path d="M15500 11000
L15500 9500
" />
<path d="M15230 12570
L15230 12260
L15420 12430
L15420 12350
L15440 12310
L15460 12280
L15510 12260
L15630 12260
L15680 12280
L15700 12310
L15730 12350
L15730 12500
L15700 12540
L15680 12570
" />
<path d="M15680 12040
L15700 12020
L15730 12040
L15700 12060
L15680 12040
L15730 12040
" />
<path d="M15230 11850
L15230 11540
L15420 11710
L15420 11630
L15440 11590
L15460 11560
L15510 11540
L15630 11540
L15680 11560
L15700 11590
L15730 11630
L15730 11780
L15700 11820
L15680 11850
" />
<path d="M15230 11390
L15730 11230
L15230 11060
" />
<path d="M15380 10110
L15380 10390
" />
<path d="M15380 10250
L14880 10250
L14950 10300
L15000 10350
L15020 10390
" />
<path d="M18500 11000
L18500 9500
" />
<path d="M18230 11560
L18230 11800
L18460 11820
L18440 11800
L18420 11750
L18420 11630
L18440 11590
L18460 11560
L18510 11540
L18630 11540
L18680 11560
L18700 11590
L18730 11630
L18730 11750
L18700 11800
L18680 11820
" />
<path d="M18230 11390
L18730 11230
L18230 11060
" />
<path d="M17920 10390
L17900 10370
L17880 10320
L17880 10200
L17900 10160
L17920 10130
L17970 10110
L18020 10110
L18090 10130
L18380 10420
L18380 10110
" />
<path d="M11500 13500
L10000 13500
" />
<path d="M11610 13700
L11680 13730
L11800 13730
L11840 13700
L11870 13680
L11890 13630
L11890 13580
L11870 13540
L11840 13510
L11800 13490
L11700 13460
L11650 13440
L11630 13420
L11610 13370
L11610 13320
L11630 13270
L11650 13250
L11700 13230
L11820 13230
L11890 13250
" />
<path d="M12110 13730
L12110 13230
L12230 13230
L12300 13250
L12350 13300
L12370 13350
L12390 13440
L12390 13510
L12370 13610
L12350 13650
L12300 13700
L12230 13730
L12110 13730
" />
<path d="M12590 13580
L12820 13580
" />
<path d="M12540 13730
L12700 13230
L12870 13730
" />
<path d="M13300 13730
L13020 13730
" />
<path d="M13160 13730
L13160 13230
L13110 13300
L13060 13350
L13020 13370
" />
<path d="M13880 13200
L13450 13850
" />
<path d="M14300 13250
L14250 13230
L14180 13230
L14110 13250
L14060 13300
L14040 13350
L14020 13440
L14020 13510
L14040 13610
L14060 13650
L14110 13700
L14180 13730
L14230 13730
L14300 13700
L14320 13680
L14320 13510
L14230 13510
" />
<path d="M14540 13730
L14540 13230
L14730 13230
L14780 13250
L14800 13270
L14820 13320
L14820 13390
L14800 13440
L14780 13460
L14730 13490
L14540 13490
" />
<path d="M15040 13730
L15040 13230
" />
<path d="M15370 13230
L15470 13230
L15520 13250
L15560 13300
L15590 13390
L15590 13560
L15560 13650
L15520 13700
L15470 13730
L15370 13730
L15330 13700
L15280 13650
L15260 13560
L15260 13390
L15280 13300
L15330 13250
L15370 13230
" />
<path d="M15780 13270
L15800 13250
L15850 13230
L15970 13230
L16010 13250
L16040 13270
L16060 13320
L16060 13370
L16040 13440
L15750 13730
L16060 13730
" />
<path d="M10580 12880
L10890 12880
L10720 13070
L10800 13070
L10840 13090
L10870 13110
L10890 13160
L10890 13280
L10870 13330
L10840 13350
L10800 13380
L10650 13380
L10610 13350
L10580 13330
" />
<path d="M17500 11000
L17500 9500
" />
<path d="M17230 11560
L17230 11800
L17460 11820
L17440 11800
L17420 11750
L17420 11630
L17440 11590
L17460 11560
L17510 11540
L17630 11540
L17680 11560
L17700 11590
L17730 11630
L17730 11750
L17700 11800
L17680 11820
" />
<path d="M17230 11390
L17730 11230
L17230 11060
" />
<path d="M17040 10160
L17380 10160
" />
<path d="M16850 10280
L17210 10390
L17210 10090
" />
<path d="M11500 14500
L10000 14500
" />
<path d="M11610 14700
L11680 14730
L11800 14730
L11840 14700
L11870 14680
L11890 14630
L11890 14580
L11870 14540
L11840 14510
L11800 14490
L11700 14460
L11650 14440
L11630 14420
L11610 14370
L11610 14320
L11630 14270
L11650 14250
L11700 14230
L11820 14230
L11890 14250
" />
<path d="M12390 14680
L12370 14700
L12300 14730
L12250 14730
L12180 14700
L12130 14650
L12110 14610
L12090 14510
L12090 14440
L12110 14350
L12130 14300
L12180 14250
L12250 14230
L12300 14230
L12370 14250
L12390 14270
" />
<path d="M12850 14730
L12610 14730
L12610 14230
" />
<path d="M13270 14730
L12990 14730
" />
<path d="M13130 14730
L13130 14230
L13080 14300
L13030 14350
L12990 14370
" />
<path d="M13850 14200
L13420 14850
" />
<path d="M14270 14250
L14220 14230
L14150 14230
L14080 14250
L14030 14300
L14010 14350
L13990 14440
L13990 14510
L14010 14610
L14030 14650
L14080 14700
L14150 14730
L14200 14730
L14270 14700
L14290 14680
L14290 14510
L14200 14510
" />
<path d="M14510 14730
L14510 14230
L14700 14230
L14750 14250
L14770 14270
L14790 14320
L14790 14390
L14770 14440
L14750 14460
L14700 14490
L14510 14490
" />
<path d="M15010 14730
L15010 14230
" />
<path d="M15340 14230
L15440 14230
L15490 14250
L15530 14300
L15560 14390
L15560 14560
L15530 14650
L15490 14700
L15440 14730
L15340 14730
L15300 14700
L15250 14650
L15230 14560
L15230 14390
L15250 14300
L15300 14250
L15340 14230
" />
<path d="M15720 14230
L16030 14230
L15860 14420
L15940 14420
L15980 14440
L16010 14460
L16030 14510
L16030 14630
L16010 14680
L15980 14700
L15940 14730
L15790 14730
L15750 14700
L15720 14680
" />
<path d="M10870 13880
L10630 13880
L10610 14110
L10630 14090
L10680 14070
L10800 14070
L10840 14090
L10870 14110
L10890 14160
L10890 14280
L10870 14330
L10840 14350
L10800 14380
L10680 14380
L10630 14350
L10610 14330
" />
<path d="M20000 31000
L20000 32500
" />
<path d="M19750 30610
L19730 30660
L19730 30730
L19750 30800
L19800 30850
L19850 30870
L19940 30890
L20010 30890
L20110 30870
L20150 30850
L20200 30800
L20230 30730
L20230 30680
L20200 30610
L20180 30590
L20010 30590
L20010 30680
" />
<path d="M20230 30370
L19730 30370
L20230 30090
L19730 30090
" />
<path d="M20230 29850
L19730 29850
L19730 29730
L19750 29660
L19800 29610
L19850 29590
L19940 29570
L20010 29570
L20110 29590
L20150 29610
L20200 29660
L20230 29730
L20230 29850
" />
<path d="M19380 31660
L19380 31750
L19400 31800
L19420 31820
L19500 31870
L19590 31890
L19780 31890
L19830 31870
L19850 31850
L19880 31800
L19880 31700
L19850 31660
L19830 31630
L19780 31610
L19660 31610
L19610 31630
L19590 31660
L19570 31700
L19570 31800
L19590 31850
L19610 31870
L19660 31890
" />
<path d="M21500 13500
L23000 13500
" />
<path d="M19630 13250
L19580 13230
L19510 13230
L19440 13250
L19390 13300
L19370 13350
L19350 13440
L19350 13510
L19370 13610
L19390 13650
L19440 13700
L19510 13730
L19560 13730
L19630 13700
L19650 13680
L19650 13510
L19560 13510
" />
<path d="M19870 13730
L19870 13230
L20060 13230
L20110 13250
L20130 13270
L20150 13320
L20150 13390
L20130 13440
L20110 13460
L20060 13490
L19870 13490
" />
<path d="M20370 13730
L20370 13230
" />
<path d="M20700 13230
L20800 13230
L20850 13250
L20890 13300
L20920 13390
L20920 13560
L20890 13650
L20850 13700
L20800 13730
L20700 13730
L20660 13700
L20610 13650
L20590 13560
L20590 13390
L20610 13300
L20660 13250
L20700 13230
" />
<path d="M21340 13390
L21340 13730
" />
<path d="M21220 13200
L21110 13560
L21410 13560
" />
<path d="M22080 12880
L22410 12880
L22200 13380
" />
<path d="M11500 16500
L10000 16500
" />
<path d="M11560 16230
L11840 16230
" />
<path d="M11700 16730
L11700 16230
" />
<path d="M11960 16230
L12290 16730
" />
<path d="M12290 16230
L11960 16730
" />
<path d="M12490 16730
L12490 16230
L12610 16230
L12680 16250
L12730 16300
L12750 16350
L12770 16440
L12770 16510
L12750 16610
L12730 16650
L12680 16700
L12610 16730
L12490 16730
" />
<path d="M13080 16230
L13130 16230
L13180 16250
L13200 16270
L13230 16320
L13250 16420
L13250 16540
L13230 16630
L13200 16680
L13180 16700
L13130 16730
L13080 16730
L13040 16700
L13010 16680
L12990 16630
L12970 16540
L12970 16420
L12990 16320
L13010 16270
L13040 16250
L13080 16230
" />
<path d="M13830 16200
L13400 16850
" />
<path d="M14250 16250
L14200 16230
L14130 16230
L14060 16250
L14010 16300
L13990 16350
L13970 16440
L13970 16510
L13990 16610
L14010 16650
L14060 16700
L14130 16730
L14180 16730
L14250 16700
L14270 16680
L14270 16510
L14180 16510
" />
<path d="M14490 16730
L14490 16230
L14680 16230
L14730 16250
L14750 16270
L14770 16320
L14770 16390
L14750 16440
L14730 16460
L14680 16490
L14490 16490
" />
<path d="M14990 16730
L14990 16230
" />
<path d="M15320 16230
L15420 16230
L15470 16250
L15510 16300
L15540 16390
L15540 16560
L15510 16650
L15470 16700
L15420 16730
L15320 16730
L15280 16700
L15230 16650
L15210 16560
L15210 16390
L15230 16300
L15280 16250
L15320 16230
" />
<path d="M16010 16730
L15730 16730
" />
<path d="M15870 16730
L15870 16230
L15820 16300
L15770 16350
L15730 16370
" />
<path d="M16440 16390
L16440 16730
" />
<path d="M16320 16200
L16210 16560
L16510 16560
" />
<path d="M10700 16090
L10650 16070
L10630 16040
L10610 16000
L10610 15970
L10630 15920
L10650 15900
L10700 15880
L10800 15880
L10840 15900
L10870 15920
L10890 15970
L10890 16000
L10870 16040
L10840 16070
L10800 16090
L10700 16090
L10650 16110
L10630 16140
L10610 16190
L10610 16280
L10630 16330
L10650 16350
L10700 16380
L10800 16380
L10840 16350
L10870 16330
L10890 16280
L10890 16190
L10870 16140
L10840 16110
L10800 16090
" />
<path d="M19000 31000
L19000 32500
" />
<path d="M18750 30610
L18730 30660
L18730 30730
L18750 30800
L18800 30850
L18850 30870
L18940 30890
L19010 30890
L19110 30870
L19150 30850
L19200 30800
L19230 30730
L19230 30680
L19200 30610
L19180 30590
L19010 30590
L19010 30680
" />
<path d="M19230 30370
L18730 30370
L19230 30090
L18730 30090
" />
<path d="M19230 29850
L18730 29850
L18730 29730
L18750 29660
L18800 29610
L18850 29590
L18940 29570
L19010 29570
L19110 29590
L19150 29610
L19200 29660
L19230 29730
L19230 29850
" />
<path d="M18880 31850
L18880 31750
L18850 31700
L18830 31680
L18760 31630
L18660 31610
L18470 31610
L18420 31630
L18400 31660
L18380 31700
L18380 31800
L18400 31850
L18420 31870
L18470 31890
L18590 31890
L18640 31870
L18660 31850
L18690 31800
L18690 31700
L18660 31660
L18640 31630
L18590 31610
" />
<path d="M11500 17500
L10000 17500
" />
<path d="M11910 17730
L11750 17490
" />
<path d="M11630 17730
L11630 17230
L11820 17230
L11870 17250
L11890 17270
L11910 17320
L11910 17390
L11890 17440
L11870 17460
L11820 17490
L11630 17490
" />
<path d="M12080 17230
L12410 17730
" />
<path d="M12410 17230
L12080 17730
" />
<path d="M12610 17730
L12610 17230
L12730 17230
L12800 17250
L12850 17300
L12870 17350
L12890 17440
L12890 17510
L12870 17610
L12850 17650
L12800 17700
L12730 17730
L12610 17730
" />
<path d="M13200 17230
L13250 17230
L13300 17250
L13320 17270
L13350 17320
L13370 17420
L13370 17540
L13350 17630
L13320 17680
L13300 17700
L13250 17730
L13200 17730
L13160 17700
L13130 17680
L13110 17630
L13090 17540
L13090 17420
L13110 17320
L13130 17270
L13160 17250
L13200 17230
" />
<path d="M13950 17200
L13520 17850
" />
<path d="M14370 17250
L14320 17230
L14250 17230
L14180 17250
L14130 17300
L14110 17350
L14090 17440
L14090 17510
L14110 17610
L14130 17650
L14180 17700
L14250 17730
L14300 17730
L14370 17700
L14390 17680
L14390 17510
L14300 17510
" />
<path d="M14610 17730
L14610 17230
L14800 17230
L14850 17250
L14870 17270
L14890 17320
L14890 17390
L14870 17440
L14850 17460
L14800 17490
L14610 17490
" />
<path d="M15110 17730
L15110 17230
" />
<path d="M15440 17230
L15540 17230
L15590 17250
L15630 17300
L15660 17390
L15660 17560
L15630 17650
L15590 17700
L15540 17730
L15440 17730
L15400 17700
L15350 17650
L15330 17560
L15330 17390
L15350 17300
L15400 17250
L15440 17230
" />
<path d="M16130 17730
L15850 17730
" />
<path d="M15990 17730
L15990 17230
L15940 17300
L15890 17350
L15850 17370
" />
<path d="M16590 17230
L16350 17230
L16330 17460
L16350 17440
L16400 17420
L16520 17420
L16560 17440
L16590 17460
L16610 17510
L16610 17630
L16590 17680
L16560 17700
L16520 17730
L16400 17730
L16350 17700
L16330 17680
" />
<path d="M10650 17380
L10370 17380
" />
<path d="M10510 17380
L10510 16880
L10460 16950
L10410 17000
L10370 17020
" />
<path d="M10960 16880
L11010 16880
L11060 16900
L11080 16920
L11110 16970
L11130 17070
L11130 17190
L11110 17280
L11080 17330
L11060 17350
L11010 17380
L10960 17380
L10920 17350
L10890 17330
L10870 17280
L10850 17190
L10850 17070
L10870 16970
L10890 16920
L10920 16900
L10960 16880
" />
<path d="M17000 31000
L17000 32500
" />
<path d="M16750 30610
L16730 30660
L16730 30730
L16750 30800
L16800 30850
L16850 30870
L16940 30890
L17010 30890
L17110 30870
L17150 30850
L17200 30800
L17230 30730
L17230 30680
L17200 30610
L17180 30590
L17010 30590
L17010 30680
" />
<path d="M17230 30370
L16730 30370
L17230 30090
L16730 30090
" />
<path d="M17230 29850
L16730 29850
L16730 29730
L16750 29660
L16800 29610
L16850 29590
L16940 29570
L17010 29570
L17110 29590
L17150 29610
L17200 29660
L17230 29730
L17230 29850
" />
<path d="M16420 32130
L16400 32110
L16380 32060
L16380 31940
L16400 31900
L16420 31870
L16470 31850
L16520 31850
L16590 31870
L16880 32160
L16880 31850
" />
<path d="M16380 31540
L16380 31490
L16400 31440
L16420 31420
L16470 31390
L16570 31370
L16690 31370
L16780 31390
L16830 31420
L16850 31440
L16880 31490
L16880 31540
L16850 31580
L16830 31610
L16780 31630
L16690 31650
L16570 31650
L16470 31630
L16420 31610
L16400 31580
L16380 31540
" />
<path d="M15000 31000
L15000 32500
" />
<path d="M14750 30610
L14730 30660
L14730 30730
L14750 30800
L14800 30850
L14850 30870
L14940 30890
L15010 30890
L15110 30870
L15150 30850
L15200 30800
L15230 30730
L15230 30680
L15200 30610
L15180 30590
L15010 30590
L15010 30680
" />
<path d="M15230 30370
L14730 30370
L15230 30090
L14730 30090
" />
<path d="M15230 29850
L14730 29850
L14730 29730
L14750 29660
L14800 29610
L14850 29590
L14940 29570
L15010 29570
L15110 29590
L15150 29610
L15200 29660
L15230 29730
L15230 29850
" />
<path d="M14380 32160
L14380 31850
L14570 32020
L14570 31940
L14590 31900
L14610 31870
L14660 31850
L14780 31850
L14830 31870
L14850 31900
L14880 31940
L14880 32090
L14850 32130
L14830 32160
" />
<path d="M14380 31540
L14380 31490
L14400 31440
L14420 31420
L14470 31390
L14570 31370
L14690 31370
L14780 31390
L14830 31420
L14850 31440
L14880 31490
L14880 31540
L14850 31580
L14830 31610
L14780 31630
L14690 31650
L14570 31650
L14470 31630
L14420 31610
L14400 31580
L14380 31540
" />
<path d="M11500 27500
L10000 27500
" />
<path d="M11610 27700
L11680 27730
L11800 27730
L11840 27700
L11870 27680
L11890 27630
L11890 27580
L11870 27540
L11840 27510
L11800 27490
L11700 27460
L11650 27440
L11630 27420
L11610 27370
L11610 27320
L11630 27270
L11650 27250
L11700 27230
L11820 27230
L11890 27250
" />
<path d="M12390 27680
L12370 27700
L12300 27730
L12250 27730
L12180 27700
L12130 27650
L12110 27610
L12090 27510
L12090 27440
L12110 27350
L12130 27300
L12180 27250
L12250 27230
L12300 27230
L12370 27250
L12390 27270
" />
<path d="M12850 27730
L12610 27730
L12610 27230
" />
<path d="M13010 27730
L13010 27230
" />
<path d="M13290 27730
L13080 27440
" />
<path d="M13290 27230
L13010 27510
" />
<path d="M13770 27730
L13490 27730
" />
<path d="M13630 27730
L13630 27230
L13580 27300
L13530 27350
L13490 27370
" />
<path d="M14350 27200
L13920 27850
" />
<path d="M14770 27250
L14720 27230
L14650 27230
L14580 27250
L14530 27300
L14510 27350
L14490 27440
L14490 27510
L14510 27610
L14530 27650
L14580 27700
L14650 27730
L14700 27730
L14770 27700
L14790 27680
L14790 27510
L14700 27510
" />
<path d="M15010 27730
L15010 27230
L15200 27230
L15250 27250
L15270 27270
L15290 27320
L15290 27390
L15270 27440
L15250 27460
L15200 27490
L15010 27490
" />
<path d="M15510 27730
L15510 27230
" />
<path d="M15840 27230
L15940 27230
L15990 27250
L16030 27300
L16060 27390
L16060 27560
L16030 27650
L15990 27700
L15940 27730
L15840 27730
L15800 27700
L15750 27650
L15730 27560
L15730 27390
L15750 27300
L15800 27250
L15840 27230
" />
<path d="M16250 27270
L16270 27250
L16320 27230
L16440 27230
L16480 27250
L16510 27270
L16530 27320
L16530 27370
L16510 27440
L16220 27730
L16530 27730
" />
<path d="M17010 27730
L16730 27730
" />
<path d="M16870 27730
L16870 27230
L16820 27300
L16770 27350
L16730 27370
" />
<path d="M10600 27040
L10600 27380
" />
<path d="M10480 26850
L10370 27210
L10670 27210
" />
<path d="M10960 26880
L11010 26880
L11060 26900
L11080 26920
L11110 26970
L11130 27070
L11130 27190
L11110 27280
L11080 27330
L11060 27350
L11010 27380
L10960 27380
L10920 27350
L10890 27330
L10870 27280
L10850 27190
L10850 27070
L10870 26970
L10890 26920
L10920 26900
L10960 26880
" />
<path d="M11500 28500
L10000 28500
" />
<path d="M11910 28680
L11890 28700
L11820 28730
L11770 28730
L11700 28700
L11650 28650
L11630 28610
L11610 28510
L11610 28440
L11630 28350
L11650 28300
L11700 28250
L11770 28230
L11820 28230
L11890 28250
L11910 28270
" />
<path d="M12130 28460
L12300 28460
" />
<path d="M12370 28730
L12130 28730
L12130 28230
L12370 28230
" />
<path d="M12840 28730
L12560 28730
" />
<path d="M12700 28730
L12700 28230
L12650 28300
L12600 28350
L12560 28370
" />
<path d="M12940 28770
L13320 28770
" />
<path d="M13530 28230
L13580 28230
L13630 28250
L13650 28270
L13680 28320
L13700 28420
L13700 28540
L13680 28630
L13650 28680
L13630 28700
L13580 28730
L13530 28730
L13490 28700
L13460 28680
L13440 28630
L13420 28540
L13420 28420
L13440 28320
L13460 28270
L13490 28250
L13530 28230
" />
<path d="M14280 28200
L13850 28850
" />
<path d="M14700 28250
L14650 28230
L14580 28230
L14510 28250
L14460 28300
L14440 28350
L14420 28440
L14420 28510
L14440 28610
L14460 28650
L14510 28700
L14580 28730
L14630 28730
L14700 28700
L14720 28680
L14720 28510
L14630 28510
" />
<path d="M14940 28730
L14940 28230
L15130 28230
L15180 28250
L15200 28270
L15220 28320
L15220 28390
L15200 28440
L15180 28460
L15130 28490
L14940 28490
" />
<path d="M15440 28730
L15440 28230
" />
<path d="M15770 28230
L15870 28230
L15920 28250
L15960 28300
L15990 28390
L15990 28560
L15960 28650
L15920 28700
L15870 28730
L15770 28730
L15730 28700
L15680 28650
L15660 28560
L15660 28390
L15680 28300
L15730 28250
L15770 28230
" />
<path d="M16460 28730
L16180 28730
" />
<path d="M16320 28730
L16320 28230
L16270 28300
L16220 28350
L16180 28370
" />
<path d="M16630 28230
L16960 28230
L16750 28730
" />
<path d="M10650 28380
L10370 28380
" />
<path d="M10510 28380
L10510 27880
L10460 27950
L10410 28000
L10370 28020
" />
<path d="M11130 28380
L10850 28380
" />
<path d="M10990 28380
L10990 27880
L10940 27950
L10890 28000
L10850 28020
" />
<path d="M11500 20500
L10000 20500
" />
<path d="M11630 20730
L11630 20230
L11800 20580
L11960 20230
L11960 20730
" />
<path d="M12200 20730
L12200 20230
" />
<path d="M12420 20700
L12490 20730
L12610 20730
L12650 20700
L12680 20680
L12700 20630
L12700 20580
L12680 20540
L12650 20510
L12610 20490
L12510 20460
L12460 20440
L12440 20420
L12420 20370
L12420 20320
L12440 20270
L12460 20250
L12510 20230
L12630 20230
L12700 20250
" />
<path d="M13010 20230
L13110 20230
L13160 20250
L13200 20300
L13230 20390
L13230 20560
L13200 20650
L13160 20700
L13110 20730
L13010 20730
L12970 20700
L12920 20650
L12900 20560
L12900 20390
L12920 20300
L12970 20250
L13010 20230
" />
<path d="M13530 20230
L13580 20230
L13630 20250
L13650 20270
L13680 20320
L13700 20420
L13700 20540
L13680 20630
L13650 20680
L13630 20700
L13580 20730
L13530 20730
L13490 20700
L13460 20680
L13440 20630
L13420 20540
L13420 20420
L13440 20320
L13460 20270
L13490 20250
L13530 20230
" />
<path d="M14280 20200
L13850 20850
" />
<path d="M14700 20250
L14650 20230
L14580 20230
L14510 20250
L14460 20300
L14440 20350
L14420 20440
L14420 20510
L14440 20610
L14460 20650
L14510 20700
L14580 20730
L14630 20730
L14700 20700
L14720 20680
L14720 20510
L14630 20510
" />
<path d="M14940 20730
L14940 20230
L15130 20230
L15180 20250
L15200 20270
L15220 20320
L15220 20390
L15200 20440
L15180 20460
L15130 20490
L14940 20490
" />
<path d="M15440 20730
L15440 20230
" />
<path d="M15770 20230
L15870 20230
L15920 20250
L15960 20300
L15990 20390
L15990 20560
L15960 20650
L15920 20700
L15870 20730
L15770 20730
L15730 20700
L15680 20650
L15660 20560
L15660 20390
L15680 20300
L15730 20250
L15770 20230
" />
<path d="M16220 20730
L16320 20730
L16370 20700
L16390 20680
L16440 20610
L16460 20510
L16460 20320
L16440 20270
L16410 20250
L16370 20230
L16270 20230
L16220 20250
L16200 20270
L16180 20320
L16180 20440
L16200 20490
L16220 20510
L16270 20540
L16370 20540
L16410 20510
L16440 20490
L16460 20440
" />
<path d="M10370 19920
L10390 19900
L10440 19880
L10560 19880
L10600 19900
L10630 19920
L10650 19970
L10650 20020
L10630 20090
L10340 20380
L10650 20380
" />
<path d="M11130 20380
L10850 20380
" />
<path d="M10990 20380
L10990 19880
L10940 19950
L10890 20000
L10850 20020
" />
<path d="M21500 15500
L23000 15500
" />
<path d="M19630 15250
L19580 15230
L19510 15230
L19440 15250
L19390 15300
L19370 15350
L19350 15440
L19350 15510
L19370 15610
L19390 15650
L19440 15700
L19510 15730
L19560 15730
L19630 15700
L19650 15680
L19650 15510
L19560 15510
" />
<path d="M19870 15730
L19870 15230
L20060 15230
L20110 15250
L20130 15270
L20150 15320
L20150 15390
L20130 15440
L20110 15460
L20060 15490
L19870 15490
" />
<path d="M20370 15730
L20370 15230
" />
<path d="M20700 15230
L20800 15230
L20850 15250
L20890 15300
L20920 15390
L20920 15560
L20890 15650
L20850 15700
L20800 15730
L20700 15730
L20660 15700
L20610 15650
L20590 15560
L20590 15390
L20610 15300
L20660 15250
L20700 15230
" />
<path d="M21340 15230
L21250 15230
L21200 15250
L21180 15270
L21130 15350
L21110 15440
L21110 15630
L21130 15680
L21150 15700
L21200 15730
L21300 15730
L21340 15700
L21370 15680
L21390 15630
L21390 15510
L21370 15460
L21340 15440
L21300 15420
L21200 15420
L21150 15440
L21130 15460
L21110 15510
" />
<path d="M21840 14880
L22150 14880
L21980 15070
L22060 15070
L22100 15090
L22130 15110
L22150 15160
L22150 15280
L22130 15330
L22100 15350
L22060 15380
L21910 15380
L21870 15350
L21840 15330
" />
<path d="M22630 15380
L22350 15380
" />
<path d="M22490 15380
L22490 14880
L22440 14950
L22390 15000
L22350 15020
" />
<path d="M21500 19500
L23000 19500
" />
<path d="M19150 19250
L19100 19230
L19030 19230
L18960 19250
L18910 19300
L18890 19350
L18870 19440
L18870 19510
L18890 19610
L18910 19650
L18960 19700
L19030 19730
L19080 19730
L19150 19700
L19170 19680
L19170 19510
L19080 19510
" />
<path d="M19390 19730
L19390 19230
L19580 19230
L19630 19250
L19650 19270
L19670 19320
L19670 19390
L19650 19440
L19630 19460
L19580 19490
L19390 19490
" />
<path d="M19890 19730
L19890 19230
" />
<path d="M20220 19230
L20320 19230
L20370 19250
L20410 19300
L20440 19390
L20440 19560
L20410 19650
L20370 19700
L20320 19730
L20220 19730
L20180 19700
L20130 19650
L20110 19560
L20110 19390
L20130 19300
L20180 19250
L20220 19230
" />
<path d="M20910 19730
L20630 19730
" />
<path d="M20770 19730
L20770 19230
L20720 19300
L20670 19350
L20630 19370
" />
<path d="M21200 19440
L21150 19420
L21130 19390
L21110 19350
L21110 19320
L21130 19270
L21150 19250
L21200 19230
L21300 19230
L21340 19250
L21370 19270
L21390 19320
L21390 19350
L21370 19390
L21340 19420
L21300 19440
L21200 19440
L21150 19460
L21130 19490
L21110 19540
L21110 19630
L21130 19680
L21150 19700
L21200 19730
L21300 19730
L21340 19700
L21370 19680
L21390 19630
L21390 19540
L21370 19490
L21340 19460
L21300 19440
" />
<path d="M22150 19380
L21870 19380
" />
<path d="M22010 19380
L22010 18880
L21960 18950
L21910 19000
L21870 19020
" />
<path d="M22350 18920
L22370 18900
L22420 18880
L22540 18880
L22580 18900
L22610 18920
L22630 18970
L22630 19020
L22610 19090
L22320 19380
L22630 19380
" />
<path d="M21500 23500
L23000 23500
" />
<path d="M19150 23250
L19100 23230
L19030 23230
L18960 23250
L18910 23300
L18890 23350
L18870 23440
L18870 23510
L18890 23610
L18910 23650
L18960 23700
L19030 23730
L19080 23730
L19150 23700
L19170 23680
L19170 23510
L19080 23510
" />
<path d="M19390 23730
L19390 23230
L19580 23230
L19630 23250
L19650 23270
L19670 23320
L19670 23390
L19650 23440
L19630 23460
L19580 23490
L19390 23490
" />
<path d="M19890 23730
L19890 23230
" />
<path d="M20220 23230
L20320 23230
L20370 23250
L20410 23300
L20440 23390
L20440 23560
L20410 23650
L20370 23700
L20320 23730
L20220 23730
L20180 23700
L20130 23650
L20110 23560
L20110 23390
L20130 23300
L20180 23250
L20220 23230
" />
<path d="M20630 23270
L20650 23250
L20700 23230
L20820 23230
L20860 23250
L20890 23270
L20910 23320
L20910 23370
L20890 23440
L20600 23730
L20910 23730
" />
<path d="M21370 23230
L21130 23230
L21110 23460
L21130 23440
L21180 23420
L21300 23420
L21340 23440
L21370 23460
L21390 23510
L21390 23630
L21370 23680
L21340 23700
L21300 23730
L21180 23730
L21130 23700
L21110 23680
" />
<path d="M21870 22920
L21890 22900
L21940 22880
L22060 22880
L22100 22900
L22130 22920
L22150 22970
L22150 23020
L22130 23090
L21840 23380
L22150 23380
" />
<path d="M22350 22920
L22370 22900
L22420 22880
L22540 22880
L22580 22900
L22610 22920
L22630 22970
L22630 23020
L22610 23090
L22320 23380
L22630 23380
" />
<path d="M21500 16500
L23000 16500
" />
<path d="M19150 16250
L19100 16230
L19030 16230
L18960 16250
L18910 16300
L18890 16350
L18870 16440
L18870 16510
L18890 16610
L18910 16650
L18960 16700
L19030 16730
L19080 16730
L19150 16700
L19170 16680
L19170 16510
L19080 16510
" />
<path d="M19390 16730
L19390 16230
L19580 16230
L19630 16250
L19650 16270
L19670 16320
L19670 16390
L19650 16440
L19630 16460
L19580 16490
L19390 16490
" />
<path d="M19890 16730
L19890 16230
" />
<path d="M20220 16230
L20320 16230
L20370 16250
L20410 16300
L20440 16390
L20440 16560
L20410 16650
L20370 16700
L20320 16730
L20220 16730
L20180 16700
L20130 16650
L20110 16560
L20110 16390
L20130 16300
L20180 16250
L20220 16230
" />
<path d="M20910 16730
L20630 16730
" />
<path d="M20770 16730
L20770 16230
L20720 16300
L20670 16350
L20630 16370
" />
<path d="M21110 16270
L21130 16250
L21180 16230
L21300 16230
L21340 16250
L21370 16270
L21390 16320
L21390 16370
L21370 16440
L21080 16730
L21390 16730
" />
<path d="M21840 15880
L22150 15880
L21980 16070
L22060 16070
L22100 16090
L22130 16110
L22150 16160
L22150 16280
L22130 16330
L22100 16350
L22060 16380
L21910 16380
L21870 16350
L21840 16330
" />
<path d="M22350 15920
L22370 15900
L22420 15880
L22540 15880
L22580 15900
L22610 15920
L22630 15970
L22630 16020
L22610 16090
L22320 16380
L22630 16380
" />
<path d="M21500 25500
L23000 25500
" />
<path d="M19150 25250
L19100 25230
L19030 25230
L18960 25250
L18910 25300
L18890 25350
L18870 25440
L18870 25510
L18890 25610
L18910 25650
L18960 25700
L19030 25730
L19080 25730
L19150 25700
L19170 25680
L19170 25510
L19080 25510
" />
<path d="M19390 25730
L19390 25230
L19580 25230
L19630 25250
L19650 25270
L19670 25320
L19670 25390
L19650 25440
L19630 25460
L19580 25490
L19390 25490
" />
<path d="M19890 25730
L19890 25230
" />
<path d="M20220 25230
L20320 25230
L20370 25250
L20410 25300
L20440 25390
L20440 25560
L20410 25650
L20370 25700
L20320 25730
L20220 25730
L20180 25700
L20130 25650
L20110 25560
L20110 25390
L20130 25300
L20180 25250
L20220 25230
" />
<path d="M20630 25270
L20650 25250
L20700 25230
L20820 25230
L20860 25250
L20890 25270
L20910 25320
L20910 25370
L20890 25440
L20600 25730
L20910 25730
" />
<path d="M21080 25230
L21410 25230
L21200 25730
" />
<path d="M22150 25380
L21870 25380
" />
<path d="M22010 25380
L22010 24880
L21960 24950
L21910 25000
L21870 25020
" />
<path d="M22320 24880
L22630 24880
L22460 25070
L22540 25070
L22580 25090
L22610 25110
L22630 25160
L22630 25280
L22610 25330
L22580 25350
L22540 25380
L22390 25380
L22350 25350
L22320 25330
" />
<path d="M11500 21500
L10000 21500
" />
<path d="M11610 21700
L11680 21730
L11800 21730
L11840 21700
L11870 21680
L11890 21630
L11890 21580
L11870 21540
L11840 21510
L11800 21490
L11700 21460
L11650 21440
L11630 21420
L11610 21370
L11610 21320
L11630 21270
L11650 21250
L11700 21230
L11820 21230
L11890 21250
" />
<path d="M12390 21680
L12370 21700
L12300 21730
L12250 21730
L12180 21700
L12130 21650
L12110 21610
L12090 21510
L12090 21440
L12110 21350
L12130 21300
L12180 21250
L12250 21230
L12300 21230
L12370 21250
L12390 21270
" />
<path d="M12850 21730
L12610 21730
L12610 21230
" />
<path d="M13010 21730
L13010 21230
" />
<path d="M13290 21730
L13080 21440
" />
<path d="M13290 21230
L13010 21510
" />
<path d="M13600 21230
L13650 21230
L13700 21250
L13720 21270
L13750 21320
L13770 21420
L13770 21540
L13750 21630
L13720 21680
L13700 21700
L13650 21730
L13600 21730
L13560 21700
L13530 21680
L13510 21630
L13490 21540
L13490 21420
L13510 21320
L13530 21270
L13560 21250
L13600 21230
" />
<path d="M14350 21200
L13920 21850
" />
<path d="M14770 21250
L14720 21230
L14650 21230
L14580 21250
L14530 21300
L14510 21350
L14490 21440
L14490 21510
L14510 21610
L14530 21650
L14580 21700
L14650 21730
L14700 21730
L14770 21700
L14790 21680
L14790 21510
L14700 21510
" />
<path d="M15010 21730
L15010 21230
L15200 21230
L15250 21250
L15270 21270
L15290 21320
L15290 21390
L15270 21440
L15250 21460
L15200 21490
L15010 21490
" />
<path d="M15510 21730
L15510 21230
" />
<path d="M15840 21230
L15940 21230
L15990 21250
L16030 21300
L16060 21390
L16060 21560
L16030 21650
L15990 21700
L15940 21730
L15840 21730
L15800 21700
L15750 21650
L15730 21560
L15730 21390
L15750 21300
L15800 21250
L15840 21230
" />
<path d="M16530 21730
L16250 21730
" />
<path d="M16390 21730
L16390 21230
L16340 21300
L16290 21350
L16250 21370
" />
<path d="M17010 21730
L16730 21730
" />
<path d="M16870 21730
L16870 21230
L16820 21300
L16770 21350
L16730 21370
" />
<path d="M10370 20920
L10390 20900
L10440 20880
L10560 20880
L10600 20900
L10630 20920
L10650 20970
L10650 21020
L10630 21090
L10340 21380
L10650 21380
" />
<path d="M10820 20880
L11130 20880
L10960 21070
L11040 21070
L11080 21090
L11110 21110
L11130 21160
L11130 21280
L11110 21330
L11080 21350
L11040 21380
L10890 21380
L10850 21350
L10820 21330
" />
<path d="M21500 17500
L23000 17500
" />
<path d="M19150 17250
L19100 17230
L19030 17230
L18960 17250
L18910 17300
L18890 17350
L18870 17440
L18870 17510
L18890 17610
L18910 17650
L18960 17700
L19030 17730
L19080 17730
L19150 17700
L19170 17680
L19170 17510
L19080 17510
" />
<path d="M19390 17730
L19390 17230
L19580 17230
L19630 17250
L19650 17270
L19670 17320
L19670 17390
L19650 17440
L19630 17460
L19580 17490
L19390 17490
" />
<path d="M19890 17730
L19890 17230
" />
<path d="M20220 17230
L20320 17230
L20370 17250
L20410 17300
L20440 17390
L20440 17560
L20410 17650
L20370 17700
L20320 17730
L20220 17730
L20180 17700
L20130 17650
L20110 17560
L20110 17390
L20130 17300
L20180 17250
L20220 17230
" />
<path d="M20910 17730
L20630 17730
" />
<path d="M20770 17730
L20770 17230
L20720 17300
L20670 17350
L20630 17370
" />
<path d="M21080 17230
L21390 17230
L21220 17420
L21300 17420
L21340 17440
L21370 17460
L21390 17510
L21390 17630
L21370 17680
L21340 17700
L21300 17730
L21150 17730
L21110 17700
L21080 17680
" />
<path d="M21840 16880
L22150 16880
L21980 17070
L22060 17070
L22100 17090
L22130 17110
L22150 17160
L22150 17280
L22130 17330
L22100 17350
L22060 17380
L21910 17380
L21870 17350
L21840 17330
" />
<path d="M22320 16880
L22630 16880
L22460 17070
L22540 17070
L22580 17090
L22610 17110
L22630 17160
L22630 17280
L22610 17330
L22580 17350
L22540 17380
L22390 17380
L22350 17350
L22320 17330
" />
<path d="M18000 31000
L18000 32500
" />
<path d="M17750 30610
L17730 30660
L17730 30730
L17750 30800
L17800 30850
L17850 30870
L17940 30890
L18010 30890
L18110 30870
L18150 30850
L18200 30800
L18230 30730
L18230 30680
L18200 30610
L18180 30590
L18010 30590
L18010 30680
" />
<path d="M18230 30370
L17730 30370
L18230 30090
L17730 30090
" />
<path d="M18230 29850
L17730 29850
L17730 29730
L17750 29660
L17800 29610
L17850 29590
L17940 29570
L18010 29570
L18110 29590
L18150 29610
L18200 29660
L18230 29730
L18230 29850
" />
<path d="M17880 31850
L17880 32130
" />
<path d="M17880 31990
L17380 31990
L17450 32040
L17500 32090
L17520 32130
" />
<path d="M17540 31420
L17880 31420
" />
<path d="M17350 31540
L17710 31650
L17710 31350
" />
<path d="M11500 22500
L10000 22500
" />
<path d="M11910 22680
L11890 22700
L11820 22730
L11770 22730
L11700 22700
L11650 22650
L11630 22610
L11610 22510
L11610 22440
L11630 22350
L11650 22300
L11700 22250
L11770 22230
L11820 22230
L11890 22250
L11910 22270
" />
<path d="M12130 22460
L12300 22460
" />
<path d="M12370 22730
L12130 22730
L12130 22230
L12370 22230
" />
<path d="M12670 22230
L12720 22230
L12770 22250
L12790 22270
L12820 22320
L12840 22420
L12840 22540
L12820 22630
L12790 22680
L12770 22700
L12720 22730
L12670 22730
L12630 22700
L12600 22680
L12580 22630
L12560 22540
L12560 22420
L12580 22320
L12600 22270
L12630 22250
L12670 22230
" />
<path d="M12940 22770
L13320 22770
" />
<path d="M13530 22230
L13580 22230
L13630 22250
L13650 22270
L13680 22320
L13700 22420
L13700 22540
L13680 22630
L13650 22680
L13630 22700
L13580 22730
L13530 22730
L13490 22700
L13460 22680
L13440 22630
L13420 22540
L13420 22420
L13440 22320
L13460 22270
L13490 22250
L13530 22230
" />
<path d="M14280 22200
L13850 22850
" />
<path d="M14700 22250
L14650 22230
L14580 22230
L14510 22250
L14460 22300
L14440 22350
L14420 22440
L14420 22510
L14440 22610
L14460 22650
L14510 22700
L14580 22730
L14630 22730
L14700 22700
L14720 22680
L14720 22510
L14630 22510
" />
<path d="M14940 22730
L14940 22230
L15130 22230
L15180 22250
L15200 22270
L15220 22320
L15220 22390
L15200 22440
L15180 22460
L15130 22490
L14940 22490
" />
<path d="M15440 22730
L15440 22230
" />
<path d="M15770 22230
L15870 22230
L15920 22250
L15960 22300
L15990 22390
L15990 22560
L15960 22650
L15920 22700
L15870 22730
L15770 22730
L15730 22700
L15680 22650
L15660 22560
L15660 22390
L15680 22300
L15730 22250
L15770 22230
" />
<path d="M16270 22440
L16220 22420
L16200 22390
L16180 22350
L16180 22320
L16200 22270
L16220 22250
L16270 22230
L16370 22230
L16410 22250
L16440 22270
L16460 22320
L16460 22350
L16440 22390
L16410 22420
L16370 22440
L16270 22440
L16220 22460
L16200 22490
L16180 22540
L16180 22630
L16200 22680
L16220 22700
L16270 22730
L16370 22730
L16410 22700
L16440 22680
L16460 22630
L16460 22540
L16440 22490
L16410 22460
L16370 22440
" />
<path d="M10370 21920
L10390 21900
L10440 21880
L10560 21880
L10600 21900
L10630 21920
L10650 21970
L10650 22020
L10630 22090
L10340 22380
L10650 22380
" />
<path d="M11080 22040
L11080 22380
" />
<path d="M10960 21850
L10850 22210
L11150 22210
" />
<path d="M14000 31000
L14000 32500
" />
<path d="M13750 30610
L13730 30660
L13730 30730
L13750 30800
L13800 30850
L13850 30870
L13940 30890
L14010 30890
L14110 30870
L14150 30850
L14200 30800
L14230 30730
L14230 30680
L14200 30610
L14180 30590
L14010 30590
L14010 30680
" />
<path d="M14230 30370
L13730 30370
L14230 30090
L13730 30090
" />
<path d="M14230 29850
L13730 29850
L13730 29730
L13750 29660
L13800 29610
L13850 29590
L13940 29570
L14010 29570
L14110 29590
L14150 29610
L14200 29660
L14230 29730
L14230 29850
" />
<path d="M13380 32160
L13380 31850
L13570 32020
L13570 31940
L13590 31900
L13610 31870
L13660 31850
L13780 31850
L13830 31870
L13850 31900
L13880 31940
L13880 32090
L13850 32130
L13830 32160
" />
<path d="M13540 31420
L13880 31420
" />
<path d="M13350 31540
L13710 31650
L13710 31350
" />
<path d="M21500 20500
L23000 20500
" />
<path d="M19150 20250
L19100 20230
L19030 20230
L18960 20250
L18910 20300
L18890 20350
L18870 20440
L18870 20510
L18890 20610
L18910 20650
L18960 20700
L19030 20730
L19080 20730
L19150 20700
L19170 20680
L19170 20510
L19080 20510
" />
<path d="M19390 20730
L19390 20230
L19580 20230
L19630 20250
L19650 20270
L19670 20320
L19670 20390
L19650 20440
L19630 20460
L19580 20490
L19390 20490
" />
<path d="M19890 20730
L19890 20230
" />
<path d="M20220 20230
L20320 20230
L20370 20250
L20410 20300
L20440 20390
L20440 20560
L20410 20650
L20370 20700
L20320 20730
L20220 20730
L20180 20700
L20130 20650
L20110 20560
L20110 20390
L20130 20300
L20180 20250
L20220 20230
" />
<path d="M20630 20270
L20650 20250
L20700 20230
L20820 20230
L20860 20250
L20890 20270
L20910 20320
L20910 20370
L20890 20440
L20600 20730
L20910 20730
" />
<path d="M21110 20270
L21130 20250
L21180 20230
L21300 20230
L21340 20250
L21370 20270
L21390 20320
L21390 20370
L21370 20440
L21080 20730
L21390 20730
" />
<path d="M22150 20380
L21870 20380
" />
<path d="M22010 20380
L22010 19880
L21960 19950
L21910 20000
L21870 20020
" />
<path d="M22610 19880
L22370 19880
L22350 20110
L22370 20090
L22420 20070
L22540 20070
L22580 20090
L22610 20110
L22630 20160
L22630 20280
L22610 20330
L22580 20350
L22540 20380
L22420 20380
L22370 20350
L22350 20330
" />
<path d="M16000 31000
L16000 32500
" />
<path d="M15750 30610
L15730 30660
L15730 30730
L15750 30800
L15800 30850
L15850 30870
L15940 30890
L16010 30890
L16110 30870
L16150 30850
L16200 30800
L16230 30730
L16230 30680
L16200 30610
L16180 30590
L16010 30590
L16010 30680
" />
<path d="M16230 30370
L15730 30370
L16230 30090
L15730 30090
" />
<path d="M16230 29850
L15730 29850
L15730 29730
L15750 29660
L15800 29610
L15850 29590
L15940 29570
L16010 29570
L16110 29590
L16150 29610
L16200 29660
L16230 29730
L16230 29850
" />
<path d="M15420 32130
L15400 32110
L15380 32060
L15380 31940
L15400 31900
L15420 31870
L15470 31850
L15520 31850
L15590 31870
L15880 32160
L15880 31850
" />
<path d="M15380 31390
L15380 31630
L15610 31650
L15590 31630
L15570 31580
L15570 31460
L15590 31420
L15610 31390
L15660 31370
L15780 31370
L15830 31390
L15850 31420
L15880 31460
L15880 31580
L15850 31630
L15830 31650
" />
<path d="M11500 26500
L10000 26500
" />
<path d="M11630 26730
L11630 26230
L11800 26580
L11960 26230
L11960 26730
" />
<path d="M12200 26730
L12200 26230
" />
<path d="M12420 26700
L12490 26730
L12610 26730
L12650 26700
L12680 26680
L12700 26630
L12700 26580
L12680 26540
L12650 26510
L12610 26490
L12510 26460
L12460 26440
L12440 26420
L12420 26370
L12420 26320
L12440 26270
L12460 26250
L12510 26230
L12630 26230
L12700 26250
" />
<path d="M13010 26230
L13110 26230
L13160 26250
L13200 26300
L13230 26390
L13230 26560
L13200 26650
L13160 26700
L13110 26730
L13010 26730
L12970 26700
L12920 26650
L12900 26560
L12900 26390
L12920 26300
L12970 26250
L13010 26230
" />
<path d="M13700 26730
L13420 26730
" />
<path d="M13560 26730
L13560 26230
L13510 26300
L13460 26350
L13420 26370
" />
<path d="M14280 26200
L13850 26850
" />
<path d="M14700 26250
L14650 26230
L14580 26230
L14510 26250
L14460 26300
L14440 26350
L14420 26440
L14420 26510
L14440 26610
L14460 26650
L14510 26700
L14580 26730
L14630 26730
L14700 26700
L14720 26680
L14720 26510
L14630 26510
" />
<path d="M14940 26730
L14940 26230
L15130 26230
L15180 26250
L15200 26270
L15220 26320
L15220 26390
L15200 26440
L15180 26460
L15130 26490
L14940 26490
" />
<path d="M15440 26730
L15440 26230
" />
<path d="M15770 26230
L15870 26230
L15920 26250
L15960 26300
L15990 26390
L15990 26560
L15960 26650
L15920 26700
L15870 26730
L15770 26730
L15730 26700
L15680 26650
L15660 26560
L15660 26390
L15680 26300
L15730 26250
L15770 26230
" />
<path d="M16460 26730
L16180 26730
" />
<path d="M16320 26730
L16320 26230
L16270 26300
L16220 26350
L16180 26370
" />
<path d="M16700 26730
L16800 26730
L16850 26700
L16870 26680
L16920 26610
L16940 26510
L16940 26320
L16920 26270
L16890 26250
L16850 26230
L16750 26230
L16700 26250
L16680 26270
L16660 26320
L16660 26440
L16680 26490
L16700 26510
L16750 26540
L16850 26540
L16890 26510
L16920 26490
L16940 26440
" />
<path d="M10340 25880
L10650 25880
L10480 26070
L10560 26070
L10600 26090
L10630 26110
L10650 26160
L10650 26280
L10630 26330
L10600 26350
L10560 26380
L10410 26380
L10370 26350
L10340 26330
" />
<path d="M11110 25880
L10870 25880
L10850 26110
L10870 26090
L10920 26070
L11040 26070
L11080 26090
L11110 26110
L11130 26160
L11130 26280
L11110 26330
L11080 26350
L11040 26380
L10920 26380
L10870 26350
L10850 26330
" />
<path d="M21500 21500
L23000 21500
" />
<path d="M19150 21250
L19100 21230
L19030 21230
L18960 21250
L18910 21300
L18890 21350
L18870 21440
L18870 21510
L18890 21610
L18910 21650
L18960 21700
L19030 21730
L19080 21730
L19150 21700
L19170 21680
L19170 21510
L19080 21510
" />
<path d="M19390 21730
L19390 21230
L19580 21230
L19630 21250
L19650 21270
L19670 21320
L19670 21390
L19650 21440
L19630 21460
L19580 21490
L19390 21490
" />
<path d="M19890 21730
L19890 21230
" />
<path d="M20220 21230
L20320 21230
L20370 21250
L20410 21300
L20440 21390
L20440 21560
L20410 21650
L20370 21700
L20320 21730
L20220 21730
L20180 21700
L20130 21650
L20110 21560
L20110 21390
L20130 21300
L20180 21250
L20220 21230
" />
<path d="M20630 21270
L20650 21250
L20700 21230
L20820 21230
L20860 21250
L20890 21270
L20910 21320
L20910 21370
L20890 21440
L20600 21730
L20910 21730
" />
<path d="M21080 21230
L21390 21230
L21220 21420
L21300 21420
L21340 21440
L21370 21460
L21390 21510
L21390 21630
L21370 21680
L21340 21700
L21300 21730
L21150 21730
L21110 21700
L21080 21680
" />
<path d="M22150 21380
L21870 21380
" />
<path d="M22010 21380
L22010 20880
L21960 20950
L21910 21000
L21870 21020
" />
<path d="M22580 20880
L22490 20880
L22440 20900
L22420 20920
L22370 21000
L22350 21090
L22350 21280
L22370 21330
L22390 21350
L22440 21380
L22540 21380
L22580 21350
L22610 21330
L22630 21280
L22630 21160
L22610 21110
L22580 21090
L22540 21070
L22440 21070
L22390 21090
L22370 21110
L22350 21160
" />
<path d="M11500 23500
L10000 23500
" />
<path d="M11910 23680
L11890 23700
L11820 23730
L11770 23730
L11700 23700
L11650 23650
L11630 23610
L11610 23510
L11610 23440
L11630 23350
L11650 23300
L11700 23250
L11770 23230
L11820 23230
L11890 23250
L11910 23270
" />
<path d="M12130 23460
L12300 23460
" />
<path d="M12370 23730
L12130 23730
L12130 23230
L12370 23230
" />
<path d="M12670 23230
L12720 23230
L12770 23250
L12790 23270
L12820 23320
L12840 23420
L12840 23540
L12820 23630
L12790 23680
L12770 23700
L12720 23730
L12670 23730
L12630 23700
L12600 23680
L12580 23630
L12560 23540
L12560 23420
L12580 23320
L12600 23270
L12630 23250
L12670 23230
" />
<path d="M12940 23770
L13320 23770
" />
<path d="M13700 23730
L13420 23730
" />
<path d="M13560 23730
L13560 23230
L13510 23300
L13460 23350
L13420 23370
" />
<path d="M14280 23200
L13850 23850
" />
<path d="M14700 23250
L14650 23230
L14580 23230
L14510 23250
L14460 23300
L14440 23350
L14420 23440
L14420 23510
L14440 23610
L14460 23650
L14510 23700
L14580 23730
L14630 23730
L14700 23700
L14720 23680
L14720 23510
L14630 23510
" />
<path d="M14940 23730
L14940 23230
L15130 23230
L15180 23250
L15200 23270
L15220 23320
L15220 23390
L15200 23440
L15180 23460
L15130 23490
L14940 23490
" />
<path d="M15440 23730
L15440 23230
" />
<path d="M15770 23230
L15870 23230
L15920 23250
L15960 23300
L15990 23390
L15990 23560
L15960 23650
L15920 23700
L15870 23730
L15770 23730
L15730 23700
L15680 23650
L15660 23560
L15660 23390
L15680 23300
L15730 23250
L15770 23230
" />
<path d="M16150 23230
L16480 23230
L16270 23730
" />
<path d="M10370 22920
L10390 22900
L10440 22880
L10560 22880
L10600 22900
L10630 22920
L10650 22970
L10650 23020
L10630 23090
L10340 23380
L10650 23380
" />
<path d="M11080 22880
L10990 22880
L10940 22900
L10920 22920
L10870 23000
L10850 23090
L10850 23280
L10870 23330
L10890 23350
L10940 23380
L11040 23380
L11080 23350
L11110 23330
L11130 23280
L11130 23160
L11110 23110
L11080 23090
L11040 23070
L10940 23070
L10890 23090
L10870 23110
L10850 23160
" />
<path d="M21500 18500
L23000 18500
" />
<path d="M19150 18250
L19100 18230
L19030 18230
L18960 18250
L18910 18300
L18890 18350
L18870 18440
L18870 18510
L18890 18610
L18910 18650
L18960 18700
L19030 18730
L19080 18730
L19150 18700
L19170 18680
L19170 18510
L19080 18510
" />
<path d="M19390 18730
L19390 18230
L19580 18230
L19630 18250
L19650 18270
L19670 18320
L19670 18390
L19650 18440
L19630 18460
L19580 18490
L19390 18490
" />
<path d="M19890 18730
L19890 18230
" />
<path d="M20220 18230
L20320 18230
L20370 18250
L20410 18300
L20440 18390
L20440 18560
L20410 18650
L20370 18700
L20320 18730
L20220 18730
L20180 18700
L20130 18650
L20110 18560
L20110 18390
L20130 18300
L20180 18250
L20220 18230
" />
<path d="M20910 18730
L20630 18730
" />
<path d="M20770 18730
L20770 18230
L20720 18300
L20670 18350
L20630 18370
" />
<path d="M21340 18230
L21250 18230
L21200 18250
L21180 18270
L21130 18350
L21110 18440
L21110 18630
L21130 18680
L21150 18700
L21200 18730
L21300 18730
L21340 18700
L21370 18680
L21390 18630
L21390 18510
L21370 18460
L21340 18440
L21300 18420
L21200 18420
L21150 18440
L21130 18460
L21110 18510
" />
<path d="M21840 17880
L22150 17880
L21980 18070
L22060 18070
L22100 18090
L22130 18110
L22150 18160
L22150 18280
L22130 18330
L22100 18350
L22060 18380
L21910 18380
L21870 18350
L21840 18330
" />
<path d="M22580 17880
L22490 17880
L22440 17900
L22420 17920
L22370 18000
L22350 18090
L22350 18280
L22370 18330
L22390 18350
L22440 18380
L22540 18380
L22580 18350
L22610 18330
L22630 18280
L22630 18160
L22610 18110
L22580 18090
L22540 18070
L22440 18070
L22390 18090
L22370 18110
L22350 18160
" />
<path d="M14500 11000
L14500 9500
" />
<path d="M14230 12570
L14230 12260
L14420 12430
L14420 12350
L14440 12310
L14460 12280
L14510 12260
L14630 12260
L14680 12280
L14700 12310
L14730 12350
L14730 12500
L14700 12540
L14680 12570
" />
<path d="M14680 12040
L14700 12020
L14730 12040
L14700 12060
L14680 12040
L14730 12040
" />
<path d="M14230 11850
L14230 11540
L14420 11710
L14420 11630
L14440 11590
L14460 11560
L14510 11540
L14630 11540
L14680 11560
L14700 11590
L14730 11630
L14730 11780
L14700 11820
L14680 11850
" />
<path d="M14230 11390
L14730 11230
L14230 11060
" />
<path d="M14380 10350
L14380 10630
" />
<path d="M14380 10490
L13880 10490
L13950 10540
L14000 10590
L14020 10630
" />
<path d="M13880 10180
L13880 9850
L14380 10060
" />
<path d="M21500 27500
L23000 27500
" />
<path d="M19510 27730
L19510 27230
" />
<path d="M19750 27730
L19750 27230
L19870 27230
L19940 27250
L19990 27300
L20010 27350
L20030 27440
L20030 27510
L20010 27610
L19990 27650
L19940 27700
L19870 27730
L19750 27730
" />
<path d="M20130 27770
L20510 27770
" />
<path d="M20610 27700
L20680 27730
L20800 27730
L20840 27700
L20870 27680
L20890 27630
L20890 27580
L20870 27540
L20840 27510
L20800 27490
L20700 27460
L20650 27440
L20630 27420
L20610 27370
L20610 27320
L20630 27270
L20650 27250
L20700 27230
L20820 27230
L20890 27250
" />
<path d="M21110 27730
L21110 27230
L21230 27230
L21300 27250
L21350 27300
L21370 27350
L21390 27440
L21390 27510
L21370 27610
L21350 27650
L21300 27700
L21230 27730
L21110 27730
" />
<path d="M21870 26920
L21890 26900
L21940 26880
L22060 26880
L22100 26900
L22130 26920
L22150 26970
L22150 27020
L22130 27090
L21840 27380
L22150 27380
" />
<path d="M22320 26880
L22650 26880
L22440 27380
" />
<path d="M21500 24500
L23000 24500
" />
<path d="M19150 24250
L19100 24230
L19030 24230
L18960 24250
L18910 24300
L18890 24350
L18870 24440
L18870 24510
L18890 24610
L18910 24650
L18960 24700
L19030 24730
L19080 24730
L19150 24700
L19170 24680
L19170 24510
L19080 24510
" />
<path d="M19390 24730
L19390 24230
L19580 24230
L19630 24250
L19650 24270
L19670 24320
L19670 24390
L19650 24440
L19630 24460
L19580 24490
L19390 24490
" />
<path d="M19890 24730
L19890 24230
" />
<path d="M20220 24230
L20320 24230
L20370 24250
L20410 24300
L20440 24390
L20440 24560
L20410 24650
L20370 24700
L20320 24730
L20220 24730
L20180 24700
L20130 24650
L20110 24560
L20110 24390
L20130 24300
L20180 24250
L20220 24230
" />
<path d="M20630 24270
L20650 24250
L20700 24230
L20820 24230
L20860 24250
L20890 24270
L20910 24320
L20910 24370
L20890 24440
L20600 24730
L20910 24730
" />
<path d="M21340 24230
L21250 24230
L21200 24250
L21180 24270
L21130 24350
L21110 24440
L21110 24630
L21130 24680
L21150 24700
L21200 24730
L21300 24730
L21340 24700
L21370 24680
L21390 24630
L21390 24510
L21370 24460
L21340 24440
L21300 24420
L21200 24420
L21150 24440
L21130 24460
L21110 24510
" />
<path d="M21840 23880
L22150 23880
L21980 24070
L22060 24070
L22100 24090
L22130 24110
L22150 24160
L22150 24280
L22130 24330
L22100 24350
L22060 24380
L21910 24380
L21870 24350
L21840 24330
" />
<path d="M22320 23880
L22650 23880
L22440 24380
" />
<path d="M21500 22500
L23000 22500
" />
<path d="M19150 22250
L19100 22230
L19030 22230
L18960 22250
L18910 22300
L18890 22350
L18870 22440
L18870 22510
L18890 22610
L18910 22650
L18960 22700
L19030 22730
L19080 22730
L19150 22700
L19170 22680
L19170 22510
L19080 22510
" />
<path d="M19390 22730
L19390 22230
L19580 22230
L19630 22250
L19650 22270
L19670 22320
L19670 22390
L19650 22440
L19630 22460
L19580 22490
L19390 22490
" />
<path d="M19890 22730
L19890 22230
" />
<path d="M20220 22230
L20320 22230
L20370 22250
L20410 22300
L20440 22390
L20440 22560
L20410 22650
L20370 22700
L20320 22730
L20220 22730
L20180 22700
L20130 22650
L20110 22560
L20110 22390
L20130 22300
L20180 22250
L20220 22230
" />
<path d="M20630 22270
L20650 22250
L20700 22230
L20820 22230
L20860 22250
L20890 22270
L20910 22320
L20910 22370
L20890 22440
L20600 22730
L20910 22730
" />
<path d="M21340 22390
L21340 22730
" />
<path d="M21220 22200
L21110 22560
L21410 22560
" />
<path d="M22150 22380
L21870 22380
" />
<path d="M22010 22380
L22010 21880
L21960 21950
L21910 22000
L21870 22020
" />
<path d="M22440 22090
L22390 22070
L22370 22040
L22350 22000
L22350 21970
L22370 21920
L22390 21900
L22440 21880
L22540 21880
L22580 21900
L22610 21920
L22630 21970
L22630 22000
L22610 22040
L22580 22070
L22540 22090
L22440 22090
L22390 22110
L22370 22140
L22350 22190
L22350 22280
L22370 22330
L22390 22350
L22440 22380
L22540 22380
L22580 22350
L22610 22330
L22630 22280
L22630 22190
L22610 22140
L22580 22110
L22540 22090
" />
<path d="M21500 28500
L23000 28500
" />
<path d="M19510 28730
L19510 28230
" />
<path d="M19750 28730
L19750 28230
L19870 28230
L19940 28250
L19990 28300
L20010 28350
L20030 28440
L20030 28510
L20010 28610
L19990 28650
L19940 28700
L19870 28730
L19750 28730
" />
<path d="M20130 28770
L20510 28770
" />
<path d="M20610 28700
L20680 28730
L20800 28730
L20840 28700
L20870 28680
L20890 28630
L20890 28580
L20870 28540
L20840 28510
L20800 28490
L20700 28460
L20650 28440
L20630 28420
L20610 28370
L20610 28320
L20630 28270
L20650 28250
L20700 28230
L20820 28230
L20890 28250
" />
<path d="M21390 28680
L21370 28700
L21300 28730
L21250 28730
L21180 28700
L21130 28650
L21110 28610
L21090 28510
L21090 28440
L21110 28350
L21130 28300
L21180 28250
L21250 28230
L21300 28230
L21370 28250
L21390 28270
" />
<path d="M21870 27920
L21890 27900
L21940 27880
L22060 27880
L22100 27900
L22130 27920
L22150 27970
L22150 28020
L22130 28090
L21840 28380
L22150 28380
" />
<path d="M22440 28090
L22390 28070
L22370 28040
L22350 28000
L22350 27970
L22370 27920
L22390 27900
L22440 27880
L22540 27880
L22580 27900
L22610 27920
L22630 27970
L22630 28000
L22610 28040
L22580 28070
L22540 28090
L22440 28090
L22390 28110
L22370 28140
L22350 28190
L22350 28280
L22370 28330
L22390 28350
L22440 28380
L22540 28380
L22580 28350
L22610 28330
L22630 28280
L22630 28190
L22610 28140
L22580 28110
L22540 28090
" />
<path d="M11500 25500
L10000 25500
" />
<path d="M11630 25730
L11630 25230
L11800 25580
L11960 25230
L11960 25730
" />
<path d="M12290 25230
L12390 25230
L12440 25250
L12480 25300
L12510 25390
L12510 25560
L12480 25650
L12440 25700
L12390 25730
L12290 25730
L12250 25700
L12200 25650
L12180 25560
L12180 25390
L12200 25300
L12250 25250
L12290 25230
" />
<path d="M12700 25700
L12770 25730
L12890 25730
L12930 25700
L12960 25680
L12980 25630
L12980 25580
L12960 25540
L12930 25510
L12890 25490
L12790 25460
L12740 25440
L12720 25420
L12700 25370
L12700 25320
L12720 25270
L12740 25250
L12790 25230
L12910 25230
L12980 25250
" />
<path d="M13200 25730
L13200 25230
" />
<path d="M13700 25730
L13420 25730
" />
<path d="M13560 25730
L13560 25230
L13510 25300
L13460 25350
L13420 25370
" />
<path d="M14280 25200
L13850 25850
" />
<path d="M14700 25250
L14650 25230
L14580 25230
L14510 25250
L14460 25300
L14440 25350
L14420 25440
L14420 25510
L14440 25610
L14460 25650
L14510 25700
L14580 25730
L14630 25730
L14700 25700
L14720 25680
L14720 25510
L14630 25510
" />
<path d="M14940 25730
L14940 25230
L15130 25230
L15180 25250
L15200 25270
L15220 25320
L15220 25390
L15200 25440
L15180 25460
L15130 25490
L14940 25490
" />
<path d="M15440 25730
L15440 25230
" />
<path d="M15770 25230
L15870 25230
L15920 25250
L15960 25300
L15990 25390
L15990 25560
L15960 25650
L15920 25700
L15870 25730
L15770 25730
L15730 25700
L15680 25650
L15660 25560
L15660 25390
L15680 25300
L15730 25250
L15770 25230
" />
<path d="M16180 25270
L16200 25250
L16250 25230
L16370 25230
L16410 25250
L16440 25270
L16460 25320
L16460 25370
L16440 25440
L16150 25730
L16460 25730
" />
<path d="M16770 25230
L16820 25230
L16870 25250
L16890 25270
L16920 25320
L16940 25420
L16940 25540
L16920 25630
L16890 25680
L16870 25700
L16820 25730
L16770 25730
L16730 25700
L16700 25680
L16680 25630
L16660 25540
L16660 25420
L16680 25320
L16700 25270
L16730 25250
L16770 25230
" />
<path d="M10340 24880
L10650 24880
L10480 25070
L10560 25070
L10600 25090
L10630 25110
L10650 25160
L10650 25280
L10630 25330
L10600 25350
L10560 25380
L10410 25380
L10370 25350
L10340 25330
" />
<path d="M10940 25090
L10890 25070
L10870 25040
L10850 25000
L10850 24970
L10870 24920
L10890 24900
L10940 24880
L11040 24880
L11080 24900
L11110 24920
L11130 24970
L11130 25000
L11110 25040
L11080 25070
L11040 25090
L10940 25090
L10890 25110
L10870 25140
L10850 25190
L10850 25280
L10870 25330
L10890 25350
L10940 25380
L11040 25380
L11080 25350
L11110 25330
L11130 25280
L11130 25190
L11110 25140
L11080 25110
L11040 25090
" />
<path d="M11500 19500
L10000 19500
" />
<path d="M11630 19730
L11630 19230
L11800 19580
L11960 19230
L11960 19730
" />
<path d="M12290 19230
L12390 19230
L12440 19250
L12480 19300
L12510 19390
L12510 19560
L12480 19650
L12440 19700
L12390 19730
L12290 19730
L12250 19700
L12200 19650
L12180 19560
L12180 19390
L12200 19300
L12250 19250
L12290 19230
" />
<path d="M12700 19700
L12770 19730
L12890 19730
L12930 19700
L12960 19680
L12980 19630
L12980 19580
L12960 19540
L12930 19510
L12890 19490
L12790 19460
L12740 19440
L12720 19420
L12700 19370
L12700 19320
L12720 19270
L12740 19250
L12790 19230
L12910 19230
L12980 19250
" />
<path d="M13200 19730
L13200 19230
" />
<path d="M13530 19230
L13580 19230
L13630 19250
L13650 19270
L13680 19320
L13700 19420
L13700 19540
L13680 19630
L13650 19680
L13630 19700
L13580 19730
L13530 19730
L13490 19700
L13460 19680
L13440 19630
L13420 19540
L13420 19420
L13440 19320
L13460 19270
L13490 19250
L13530 19230
" />
<path d="M14280 19200
L13850 19850
" />
<path d="M14700 19250
L14650 19230
L14580 19230
L14510 19250
L14460 19300
L14440 19350
L14420 19440
L14420 19510
L14440 19610
L14460 19650
L14510 19700
L14580 19730
L14630 19730
L14700 19700
L14720 19680
L14720 19510
L14630 19510
" />
<path d="M14940 19730
L14940 19230
L15130 19230
L15180 19250
L15200 19270
L15220 19320
L15220 19390
L15200 19440
L15180 19460
L15130 19490
L14940 19490
" />
<path d="M15440 19730
L15440 19230
" />
<path d="M15770 19230
L15870 19230
L15920 19250
L15960 19300
L15990 19390
L15990 19560
L15960 19650
L15920 19700
L15870 19730
L15770 19730
L15730 19700
L15680 19650
L15660 19560
L15660 19390
L15680 19300
L15730 19250
L15770 19230
" />
<path d="M16460 19730
L16180 19730
" />
<path d="M16320 19730
L16320 19230
L16270 19300
L16220 19350
L16180 19370
" />
<path d="M16770 19230
L16820 19230
L16870 19250
L16890 19270
L16920 19320
L16940 19420
L16940 19540
L16920 19630
L16890 19680
L16870 19700
L16820 19730
L16770 19730
L16730 19700
L16700 19680
L16680 19630
L16660 19540
L16660 19420
L16680 19320
L16700 19270
L16730 19250
L16770 19230
" />
<path d="M10650 19380
L10370 19380
" />
<path d="M10510 19380
L10510 18880
L10460 18950
L10410 19000
L10370 19020
" />
<path d="M10890 19380
L10990 19380
L11040 19350
L11060 19330
L11110 19260
L11130 19160
L11130 18970
L11110 18920
L11080 18900
L11040 18880
L10940 18880
L10890 18900
L10870 18920
L10850 18970
L10850 19090
L10870 19140
L10890 19160
L10940 19190
L11040 19190
L11080 19160
L11110 19140
L11130 19090
" />
<path d="M21500 14500
L23000 14500
" />
<path d="M19630 14250
L19580 14230
L19510 14230
L19440 14250
L19390 14300
L19370 14350
L19350 14440
L19350 14510
L19370 14610
L19390 14650
L19440 14700
L19510 14730
L19560 14730
L19630 14700
L19650 14680
L19650 14510
L19560 14510
" />
<path d="M19870 14730
L19870 14230
L20060 14230
L20110 14250
L20130 14270
L20150 14320
L20150 14390
L20130 14440
L20110 14460
L20060 14490
L19870 14490
" />
<path d="M20370 14730
L20370 14230
" />
<path d="M20700 14230
L20800 14230
L20850 14250
L20890 14300
L20920 14390
L20920 14560
L20890 14650
L20850 14700
L20800 14730
L20700 14730
L20660 14700
L20610 14650
L20590 14560
L20590 14390
L20610 14300
L20660 14250
L20700 14230
" />
<path d="M21370 14230
L21130 14230
L21110 14460
L21130 14440
L21180 14420
L21300 14420
L21340 14440
L21370 14460
L21390 14510
L21390 14630
L21370 14680
L21340 14700
L21300 14730
L21180 14730
L21130 14700
L21110 14680
" />
<path d="M21870 13920
L21890 13900
L21940 13880
L22060 13880
L22100 13900
L22130 13920
L22150 13970
L22150 14020
L22130 14090
L21840 14380
L22150 14380
" />
<path d="M22390 14380
L22490 14380
L22540 14350
L22560 14330
L22610 14260
L22630 14160
L22630 13970
L22610 13920
L22580 13900
L22540 13880
L22440 13880
L22390 13900
L22370 13920
L22350 13970
L22350 14090
L22370 14140
L22390 14160
L22440 14190
L22540 14190
L22580 14160
L22610 14140
L22630 14090
" />
<path d="M13000 31000
L13000 32500
" />
<path d="M12750 30610
L12730 30660
L12730 30730
L12750 30800
L12800 30850
L12850 30870
L12940 30890
L13010 30890
L13110 30870
L13150 30850
L13200 30800
L13230 30730
L13230 30680
L13200 30610
L13180 30590
L13010 30590
L13010 30680
" />
<path d="M13230 30370
L12730 30370
L13230 30090
L12730 30090
" />
<path d="M13230 29850
L12730 29850
L12730 29730
L12750 29660
L12800 29610
L12850 29590
L12940 29570
L13010 29570
L13110 29590
L13150 29610
L13200 29660
L13230 29730
L13230 29850
" />
<path d="M12380 32160
L12380 31850
L12570 32020
L12570 31940
L12590 31900
L12610 31870
L12660 31850
L12780 31850
L12830 31870
L12850 31900
L12880 31940
L12880 32090
L12850 32130
L12830 32160
" />
<path d="M12880 31610
L12880 31510
L12850 31460
L12830 31440
L12760 31390
L12660 31370
L12470 31370
L12420 31390
L12400 31420
L12380 31460
L12380 31560
L12400 31610
L12420 31630
L12470 31650
L12590 31650
L12640 31630
L12660 31610
L12690 31560
L12690 31460
L12660 31420
L12640 31390
L12590 31370
" />
<path d="M7570 10200
L7410 9960
" />
<path d="M7290 10200
L7290 9700
L7480 9700
L7530 9720
L7550 9740
L7570 9790
L7570 9860
L7550 9910
L7530 9930
L7480 9960
L7290 9960
" />
<path d="M8000 10200
L8000 9930
L7980 9890
L7930 9860
L7840 9860
L7790 9890
" />
<path d="M8000 10170
L7960 10200
L7840 10200
L7790 10170
L7770 10120
L7770 10080
L7790 10030
L7840 10010
L7960 10010
L8000 9980
" />
<path d="M8220 10170
L8260 10200
L8360 10200
L8410 10170
L8430 10120
L8430 10100
L8410 10050
L8360 10030
L8290 10030
L8240 10010
L8220 9960
L8220 9930
L8240 9890
L8290 9860
L8360 9860
L8410 9890
" />
<path d="M8640 9860
L8640 10360
" />
<path d="M8640 9890
L8690 9860
L8780 9860
L8830 9890
L8850 9910
L8880 9960
L8880 10100
L8850 10150
L8830 10170
L8780 10200
L8690 10200
L8640 10170
" />
<path d="M9090 10200
L9090 9700
" />
<path d="M9090 9890
L9140 9860
L9230 9860
L9280 9890
L9300 9910
L9330 9960
L9330 10100
L9300 10150
L9280 10170
L9230 10200
L9140 10200
L9090 10170
" />
<path d="M9730 10170
L9680 10200
L9590 10200
L9540 10170
L9520 10120
L9520 9930
L9540 9890
L9590 9860
L9680 9860
L9730 9890
L9750 9930
L9750 9980
L9520 10030
" />
<path d="M9970 10200
L9970 9860
" />
<path d="M9970 9960
L9990 9910
L10020 9890
L10060 9860
L10110 9860
" />
<path d="M10280 10200
L10280 9860
" />
<path d="M10280 9960
L10300 9910
L10330 9890
L10370 9860
L10420 9860
" />
<path d="M10540 9860
L10660 10200
" />
<path d="M10780 9860
L10660 10200
L10610 10320
L10590 10340
L10540 10360
" />
<path d="M10850 10240
L11230 10240
" />
<path d="M11350 10200
L11350 9700
L11540 9700
L11590 9720
L11610 9740
L11630 9790
L11630 9860
L11610 9910
L11590 9930
L11540 9960
L11350 9960
" />
<path d="M11850 10200
L11850 9860
" />
<path d="M11850 9700
L11830 9720
L11850 9740
L11870 9720
L11850 9700
L11850 9740
" />
<path d="M11970 10240
L12350 10240
" />
<path d="M12420 9700
L12730 9700
L12560 9890
L12640 9890
L12680 9910
L12710 9930
L12730 9980
L12730 10100
L12710 10150
L12680 10170
L12640 10200
L12490 10200
L12450 10170
L12420 10150
" />
</g>
<g style="fill:#000000; fill-opacity:0.0; 
stroke:#000000; stroke-width:0; stroke-opacity:1; 
stroke-linecap:round; stroke-linejoin:round;">
</g>
<g style="fill:#000000; fill-opacity:0.0; 
stroke:#000000; stroke-width:100; stroke-opacity:1; 
stroke-linecap:round; stroke-linejoin:round;">
<rect x="28100" y="27500" width="800" height="2000" rx="0" />
</g>
<g style="fill:#000000; fill-opacity:0.0; 
stroke:#000000; stroke-width:60; stroke-opacity:1; 
stroke-linecap:round; stroke-linejoin:round;">
<path d="M28500 27500
L28500 27000
" />
<path d="M28500 29500
L28500 30000
" />
<path d="M27900 28590
L27660 28750
" />
<path d="M27900 28870
L27400 28870
L27400 28680
L27420 28630
L27440 28610
L27490 28590
L27560 28590
L27610 28610
L27630 28630
L27660 28680
L27660 28870
" />
<path d="M27440 28390
L27420 28370
L27400 28320
L27400 28200
L27420 28160
L27440 28130
L27490 28110
L27540 28110
L27610 28130
L27900 28420
L27900 28110
" />
<path d="M29700 28800
L29700 29080
" />
<path d="M29700 28940
L29200 28940
L29270 28990
L29320 29040
L29340 29080
" />
<path d="M29200 28490
L29200 28440
L29220 28390
L29240 28370
L29290 28340
L29390 28320
L29510 28320
L29600 28340
L29650 28370
L29670 28390
L29700 28440
L29700 28490
L29670 28530
L29650 28560
L29600 28580
L29510 28600
L29390 28600
L29290 28580
L29240 28560
L29220 28530
L29200 28490
" />
<path d="M29700 28100
L29200 28100
" />
<path d="M29510 28050
L29700 27910
" />
<path d="M29360 27910
L29550 28100
" />
</g>
<g style="fill:#000000; fill-opacity:0.0; 
stroke:#000000; stroke-width:0; stroke-opacity:1; 
stroke-linecap:round; stroke-linejoin:round;">
</g>
<g style="fill:#000000; fill-opacity:0.0; 
stroke:#000000; stroke-width:60; stroke-opacity:1; 
stroke-linecap:round; stroke-linejoin:round;">
<polyline fill="none;"
points="26000,18250
26500,18250
" /> 
<polyline fill="none;"
points="26000,17500
26000,18250
" /> 
<polyline fill="none;"
points="26000,17500
26750,17500
" /> 
<polyline fill="none;"
points="26000,16750
26000,17500
" /> 
<polyline fill="none;"
points="26000,16750
26500,16750
" /> 
<polyline fill="none;"
points="27000,17500
27250,17500
" /> 
<polyline fill="none;"
points="27500,17500
27750,17500
" /> 
<polyline fill="none;"
points="28000,17500
28250,17500
" /> 
<polyline fill="none;"
points="28500,18500
28100,16700
" /> 
<polyline fill="none;"
points="28500,16700
28500,16500
" /> 
<polyline fill="none;"
points="29500,18500
28500,18500
" /> 
<polyline fill="none;"
points="29500,16500
28500,16500
" /> 
</g>
<g style="fill:#000000; fill-opacity:1.0; 
stroke:#000000; stroke-width:60; stroke-opacity:1; 
stroke-linecap:round; stroke-linejoin:round;">
<circle cx="28500" cy="18500" r="50" /> 
<circle cx="28500" cy="16500" r="50" /> 
</g>
<g style="fill:#000000; fill-opacity:0.0; 
stroke:#000000; stroke-width:60; stroke-opacity:1; 
stroke-linecap:round; stroke-linejoin:round;">
<path d="M28500 16500
L28500 15500
" />
<path d="M29500 16500
L29500 15500
" />
<path d="M28500 18500
L28500 19500
" />
<path d="M29500 18500
L29500 19500
" />
<path d="M25290 18160
L25310 18100
L25310 17990
L25290 17950
L25270 17930
L25220 17910
L25180 17910
L25140 17930
L25120 17950
L25090 17990
L25070 18080
L25050 18120
L25030 18140
L24990 18160
L24940 18160
L24900 18140
L24880 18120
L24860 18080
L24860 17970
L24880 17910
" />
<path d="M25310 17480
L25310 17730
" />
<path d="M25310 17610
L24860 17610
L24920 17650
L24970 17690
L24990 17730
" />
<path d="M15500 9500
L15500 7000
" />
<path d="M15500 7000
L28500 7000
" />
<path d="M28500 7000
L28500 10000
" />
<path d="M28500 33500
L20000 33500
" />
<path d="M20000 33500
L20000 32500
" />
<path d="M28500 30000
L28500 33500
" />
<path d="M28500 13000
L28500 15000
" />
<path d="M28500 15000
L28500 15500
" />
<path d="M28500 19500
L28500 20000
" />
<path d="M28500 20000
L28500 21500
" />
<path d="M28500 21500
L28500 27000
" />
<path d="M23000 21500
L28500 21500
" />
</g>
<g style="fill:#000000; fill-opacity:0.0; 
stroke:#000000; stroke-width:0; stroke-opacity:1; 
stroke-linecap:round; stroke-linejoin:round;">
</g>
<g style="fill:#000000; fill-opacity:1.0; 
stroke:#000000; stroke-width:100; stroke-opacity:1; 
stroke-linecap:round; stroke-linejoin:round;">
<circle cx="28500" cy="21500" r="200" /> 
</g>
<g style="fill:#000000; fill-opacity:1.0; 
stroke:#000000; stroke-width:60; stroke-opacity:1; 
stroke-linecap:round; stroke-linejoin:round;">
</g>
<g style="fill:#000000; fill-opacity:0.0; 
stroke:#000000; stroke-width:60; stroke-opacity:1; 
stroke-linecap:round; stroke-linejoin:round;">
<path d="M29500 19500
L29500 20000
" />
<path d="M29500 20000
L28500 20000
" />
</g>
<g style="fill:#000000; fill-opacity:0.0; 
stroke:#000000; stroke-width:0; stroke-opacity:1; 
stroke-linecap:round; stroke-linejoin:round;">
</g>
<g style="fill:#000000; fill-opacity:1.0; 
stroke:#000000; stroke-width:100; stroke-opacity:1; 
stroke-linecap:round; stroke-linejoin:round;">
<circle cx="28500" cy="20000" r="200" /> 
</g>
<g style="fill:#000000; fill-opacity:1.0; 
stroke:#000000; stroke-width:60; stroke-opacity:1; 
stroke-linecap:round; stroke-linejoin:round;">
</g>
<g style="fill:#000000; fill-opacity:0.0; 
stroke:#000000; stroke-width:60; stroke-opacity:1; 
stroke-linecap:round; stroke-linejoin:round;">
<path d="M29500 15500
L29500 15000
" />
<path d="M29500 15000
L28500 15000
" />
</g>
<g style="fill:#000000; fill-opacity:0.0; 
stroke:#000000; stroke-width:0; stroke-opacity:1; 
stroke-linecap:round; stroke-linejoin:round;">
</g>
<g style="fill:#000000; fill-opacity:1.0; 
stroke:#000000; stroke-width:100; stroke-opacity:1; 
stroke-linecap:round; stroke-linejoin:round;">
<circle cx="28500" cy="15000" r="200" /> 
</g>
<g style="fill:#000000; fill-opacity:1.0; 
stroke:#000000; stroke-width:60; stroke-opacity:1; 
stroke-linecap:round; stroke-linejoin:round;">
</g>
<g style="fill:#000000; fill-opacity:0.0; 
stroke:#000000; stroke-width:60; stroke-opacity:1; 
stroke-linecap:round; stroke-linejoin:round;">
<path d="M25730 30860
L26330 30860
" />
<path d="M25760 30860
L25730 30800
L25730 30690
L25760 30630
L25790 30600
L25850 30570
L26020 30570
L26070 30600
L26100 30630
L26130 30690
L26130 30800
L26100 30860
" />
<path d="M25730 30060
L26130 30060
" />
<path d="M25730 30320
L26050 30320
L26100 30290
L26130 30230
L26130 30150
L26100 30090
L26070 30060
" />
<path d="M26130 29690
L26100 29750
L26050 29780
L25530 29780
" />
<path d="M26130 29380
L26100 29440
L26050 29470
L25530 29470
" />
<path d="M26130 28900
L25530 28900
" />
<path d="M26100 28900
L26130 28960
L26130 29070
L26100 29130
L26070 29160
L26020 29190
L25850 29190
L25790 29160
L25760 29130
L25730 29070
L25730 28960
L25760 28900
" />
<path d="M26130 28530
L26100 28590
L26070 28620
L26020 28650
L25850 28650
L25790 28620
L25760 28590
L25730 28530
L25730 28450
L25760 28390
L25790 28360
L25850 28330
L26020 28330
L26070 28360
L26100 28390
L26130 28450
L26130 28530
" />
<path d="M25730 28130
L26130 28020
L25850 27910
L26130 27790
L25730 27680
" />
<path d="M25730 27450
L26130 27450
" />
<path d="M25790 27450
L25760 27420
L25730 27360
L25730 27280
L25760 27220
L25820 27190
L26130 27190
" />
<path d="M26370 30910
L26970 30770
L26540 30660
L26970 30540
L26370 30400
" />
<path d="M26970 30170
L26570 30170
" />
<path d="M26370 30170
L26400 30200
L26430 30170
L26400 30140
L26370 30170
L26430 30170
" />
<path d="M26970 29620
L26370 29620
" />
<path d="M26940 29620
L26970 29680
L26970 29790
L26940 29850
L26910 29880
L26860 29910
L26690 29910
L26630 29880
L26600 29850
L26570 29790
L26570 29680
L26600 29620
" />
<path d="M26940 29110
L26970 29170
L26970 29280
L26940 29340
L26890 29370
L26660 29370
L26600 29340
L26570 29280
L26570 29170
L26600 29110
L26660 29080
L26710 29080
L26770 29370
" />
<path d="M26970 28830
L26570 28830
" />
<path d="M26690 28830
L26630 28800
L26600 28770
L26570 28710
L26570 28660
" />
<path d="M26940 28490
L26970 28430
L26970 28310
L26940 28260
L26890 28230
L26860 28230
L26800 28260
L26770 28310
L26770 28400
L26740 28460
L26690 28490
L26660 28490
L26600 28460
L26570 28400
L26570 28310
L26600 28260
" />
<path d="M26570 28050
L26570 27820
" />
<path d="M26370 27970
L26890 27970
L26940 27940
L26970 27880
L26970 27820
" />
<path d="M26970 27370
L26660 27370
L26600 27400
L26570 27460
L26570 27570
L26600 27630
" />
<path d="M26940 27370
L26970 27430
L26970 27570
L26940 27630
L26890 27660
L26830 27660
L26770 27630
L26740 27570
L26740 27430
L26710 27370
" />
<path d="M26570 27090
L26970 27090
" />
<path d="M26630 27090
L26600 27060
L26570 27000
L26570 26920
L26600 26860
L26660 26830
L26970 26830
" />
<path d="M26970 26290
L26370 26290
" />
<path d="M26940 26290
L26970 26350
L26970 26460
L26940 26520
L26910 26550
L26860 26580
L26690 26580
L26630 26550
L26600 26520
L26570 26460
L26570 26350
L26600 26290
" />
<path d="M25290 13770
L25260 13830
L25230 13860
L25180 13890
L25010 13890
L24950 13860
L24920 13830
L24890 13770
L24890 13690
L24920 13630
L24950 13600
L25010 13570
L25180 13570
L25230 13600
L25260 13630
L25290 13690
L25290 13770
" />
<path d="M24890 13320
L25490 13320
" />
<path d="M24920 13320
L24890 13260
L24890 13150
L24920 13090
L24950 13060
L25010 13030
L25180 13030
L25230 13060
L25260 13090
L25290 13150
L25290 13260
L25260 13320
" />
<path d="M24890 12860
L24890 12630
" />
<path d="M24690 12780
L25210 12780
L25260 12750
L25290 12690
L25290 12630
" />
<path d="M25290 12440
L24890 12440
" />
<path d="M24690 12440
L24720 12470
L24750 12440
L24720 12410
L24690 12440
L24750 12440
" />
<path d="M25290 12060
L25260 12120
L25230 12150
L25180 12180
L25010 12180
L24950 12150
L24920 12120
L24890 12060
L24890 11980
L24920 11920
L24950 11890
L25010 11860
L25180 11860
L25230 11890
L25260 11920
L25290 11980
L25290 12060
" />
<path d="M24890 11610
L25290 11610
" />
<path d="M24950 11610
L24920 11580
L24890 11520
L24890 11440
L24920 11380
L24980 11350
L25290 11350
" />
<path d="M25290 10810
L24980 10810
L24920 10840
L24890 10900
L24890 11010
L24920 11070
" />
<path d="M25260 10810
L25290 10870
L25290 11010
L25260 11070
L25210 11100
L25150 11100
L25090 11070
L25060 11010
L25060 10870
L25030 10810
" />
<path d="M25290 10440
L25260 10500
L25210 10530
L24690 10530
" />
<path d="M25260 9990
L25290 10050
L25290 10160
L25260 10220
L25210 10250
L24980 10250
L24920 10220
L24890 10160
L24890 10050
L24920 9990
L24980 9960
L25030 9960
L25090 10250
" />
<path d="M25290 9710
L24890 9710
" />
<path d="M25010 9710
L24950 9680
L24920 9650
L24890 9590
L24890 9540
" />
<path d="M25530 13910
L26130 13770
L25700 13660
L26130 13540
L25530 13400
" />
<path d="M26130 13170
L25730 13170
" />
<path d="M25530 13170
L25560 13200
L25590 13170
L25560 13140
L25530 13170
L25590 13170
" />
<path d="M26130 12620
L25530 12620
" />
<path d="M26100 12620
L26130 12680
L26130 12790
L26100 12850
L26070 12880
L26020 12910
L25850 12910
L25790 12880
L25760 12850
L25730 12790
L25730 12680
L25760 12620
" />
<path d="M26100 12110
L26130 12170
L26130 12280
L26100 12340
L26050 12370
L25820 12370
L25760 12340
L25730 12280
L25730 12170
L25760 12110
L25820 12080
L25870 12080
L25930 12370
" />
<path d="M26130 11830
L25730 11830
" />
<path d="M25850 11830
L25790 11800
L25760 11770
L25730 11710
L25730 11660
" />
<path d="M26100 11490
L26130 11430
L26130 11310
L26100 11260
L26050 11230
L26020 11230
L25960 11260
L25930 11310
L25930 11400
L25900 11460
L25850 11490
L25820 11490
L25760 11460
L25730 11400
L25730 11310
L25760 11260
" />
<path d="M25730 11050
L25730 10820
" />
<path d="M25530 10970
L26050 10970
L26100 10940
L26130 10880
L26130 10820
" />
<path d="M26130 10370
L25820 10370
L25760 10400
L25730 10460
L25730 10570
L25760 10630
" />
<path d="M26100 10370
L26130 10430
L26130 10570
L26100 10630
L26050 10660
L25990 10660
L25930 10630
L25900 10570
L25900 10430
L25870 10370
" />
<path d="M25730 10090
L26130 10090
" />
<path d="M25790 10090
L25760 10060
L25730 10000
L25730 9920
L25760 9860
L25820 9830
L26130 9830
" />
<path d="M26130 9290
L25530 9290
" />
<path d="M26100 9290
L26130 9350
L26130 9460
L26100 9520
L26070 9550
L26020 9580
L25850 9580
L25790 9550
L25760 9520
L25730 9460
L25730 9350
L25760 9290
" />
<path d="M26570 13910
L26570 13600
L26970 13910
L26970 13600
" />
<path d="M26570 13110
L26970 13110
" />
<path d="M26570 13370
L26890 13370
L26940 13340
L26970 13280
L26970 13200
L26940 13140
L26910 13110
" />
<path d="M26970 12830
L26570 12830
" />
<path d="M26690 12830
L26630 12800
L26600 12770
L26570 12710
L26570 12660
" />
<path d="M26940 12030
L26970 11940
L26970 11800
L26940 11740
L26910 11710
L26860 11680
L26800 11680
L26740 11710
L26710 11740
L26690 11800
L26660 11910
L26630 11970
L26600 12000
L26540 12030
L26490 12030
L26430 12000
L26400 11970
L26370 11910
L26370 11770
L26400 11680
" />
<path d="M26970 11430
L26570 11430
" />
<path d="M26370 11430
L26400 11460
L26430 11430
L26400 11400
L26370 11430
L26430 11430
" />
<path d="M26940 10880
L26970 10940
L26970 11050
L26940 11110
L26910 11140
L26860 11170
L26690 11170
L26630 11140
L26600 11110
L26570 11050
L26570 10940
L26600 10880
" />
<path d="M26970 10630
L26370 10630
" />
<path d="M26970 10370
L26660 10370
L26600 10400
L26570 10460
L26570 10540
L26600 10600
L26630 10630
" />
<path d="M26940 9860
L26970 9920
L26970 10030
L26940 10090
L26890 10120
L26660 10120
L26600 10090
L26570 10030
L26570 9920
L26600 9860
L26660 9830
L26710 9830
L26770 10120
" />
<path d="M26970 9580
L26570 9580
" />
<path d="M26690 9580
L26630 9550
L26600 9520
L26570 9460
L26570 9410
" />
<path d="M26970 9210
L26370 9210
" />
<path d="M26970 8950
L26660 8950
L26600 8980
L26570 9040
L26570 9120
L26600 9180
L26630 9210
" />
<path d="M26940 8440
L26970 8500
L26970 8610
L26940 8670
L26890 8700
L26660 8700
L26600 8670
L26570 8610
L26570 8500
L26600 8440
L26660 8410
L26710 8410
L26770 8700
" />
<path d="M26970 8160
L26570 8160
" />
<path d="M26370 8160
L26400 8190
L26430 8160
L26400 8130
L26370 8160
L26430 8160
" />
<path d="M26570 7950
L26570 7720
" />
<path d="M26370 7870
L26890 7870
L26940 7840
L26970 7780
L26970 7720
" />
</g> 
</svg>
